<?xml version="1.0" encoding="utf-8" standalone="no"?>
<!DOCTYPE svg PUBLIC "-//W3C//DTD SVG 1.1//EN"
  "http://www.w3.org/Graphics/SVG/1.1/DTD/svg11.dtd">
<svg xmlns:xlink="http://www.w3.org/1999/xlink" width="792pt" height="252pt" viewBox="0 0 792 252" xmlns="http://www.w3.org/2000/svg" version="1.1">
 <metadata>
  <rdf:RDF xmlns:dc="http://purl.org/dc/elements/1.1/" xmlns:cc="http://creativecommons.org/ns#" xmlns:rdf="http://www.w3.org/1999/02/22-rdf-syntax-ns#">
   <cc:Work>
    <dc:type rdf:resource="http://purl.org/dc/dcmitype/StillImage"/>
    <dc:date>2026-10-03T01:38:13.037314</dc:date>
    <dc:format>image/svg+xml</dc:format>
    <dc:creator>
     <cc:Agent>
      <dc:title>Matplotlib v3.10.3, https://matplotlib.org/</dc:title>
     </cc:Agent>
    </dc:creator>
   </cc:Work>
  </rdf:RDF>
 </metadata>
 <defs>
  <style type="text/css">*{stroke-linejoin: round; stroke-linecap: butt}</style>
 </defs>
 <g id="figure_1">
  <g id="patch_1">
   <path d="M 0 252
L 792 252
L 792 0
L 0 0
z
" style="fill: #ffffff"/>
  </g>
  <g id="axes_1">
   <g id="patch_2">
    <path d="M 44.783053 218.64351
L 394.500156 218.64351
L 394.500156 18.118365
L 44.783053 18.118365
z
" style="fill: #ffffff"/>
   </g>
   <g id="matplotlib.axis_1">
    <g id="xtick_1">
     <g id="line2d_1">
      <path d="M 44.783053 218.64351
L 44.783053 18.118365
" clip-path="url(#peb3b737fad)" style="fill: none; stroke: #b0b0b0; stroke-opacity: 0.2; stroke-width: 0.8; stroke-linecap: square"/>
     </g>
     <g id="line2d_2">
      <defs>
       <path id="m695c446bba" d="M 0 0
L 0 3.5
" style="stroke: #000000; stroke-width: 0.8"/>
      </defs>
      <g>
       <use xlink:href="#m695c446bba" x="44.783053" y="218.64351" style="stroke: #000000; stroke-width: 0.8"/>
      </g>
     </g>
     <g id="text_1">
      <text style="font-size: 10px; font-family: 'DejaVu Sans', 'Bitstream Vera Sans', 'Computer Modern Sans Serif', 'Lucida Grande', 'Verdana', 'Geneva', 'Lucid', 'Arial', 'Helvetica', 'Avant Garde', sans-serif; text-anchor: middle" x="44.783053" y="233.241948" transform="rotate(-0 44.783053 233.241948)">2.0</text>
     </g>
    </g>
    <g id="xtick_2">
     <g id="line2d_3">
      <path d="M 86.749105 218.64351
L 86.749105 18.118365
" clip-path="url(#peb3b737fad)" style="fill: none; stroke: #b0b0b0; stroke-opacity: 0.2; stroke-width: 0.8; stroke-linecap: square"/>
     </g>
     <g id="line2d_4">
      <g>
       <use xlink:href="#m695c446bba" x="86.749105" y="218.64351" style="stroke: #000000; stroke-width: 0.8"/>
      </g>
     </g>
     <g id="text_2">
      <text style="font-size: 10px; font-family: 'DejaVu Sans', 'Bitstream Vera Sans', 'Computer Modern Sans Serif', 'Lucida Grande', 'Verdana', 'Geneva', 'Lucid', 'Arial', 'Helvetica', 'Avant Garde', sans-serif; text-anchor: middle" x="86.749105" y="233.241948" transform="rotate(-0 86.749105 233.241948)">2.1</text>
     </g>
    </g>
    <g id="xtick_3">
     <g id="line2d_5">
      <path d="M 128.715157 218.64351
L 128.715157 18.118365
" clip-path="url(#peb3b737fad)" style="fill: none; stroke: #b0b0b0; stroke-opacity: 0.2; stroke-width: 0.8; stroke-linecap: square"/>
     </g>
     <g id="line2d_6">
      <g>
       <use xlink:href="#m695c446bba" x="128.715157" y="218.64351" style="stroke: #000000; stroke-width: 0.8"/>
      </g>
     </g>
     <g id="text_3">
      <text style="font-size: 10px; font-family: 'DejaVu Sans', 'Bitstream Vera Sans', 'Computer Modern Sans Serif', 'Lucida Grande', 'Verdana', 'Geneva', 'Lucid', 'Arial', 'Helvetica', 'Avant Garde', sans-serif; text-anchor: middle" x="128.715157" y="233.241948" transform="rotate(-0 128.715157 233.241948)">2.2</text>
     </g>
    </g>
    <g id="xtick_4">
     <g id="line2d_7">
      <path d="M 170.68121 218.64351
L 170.68121 18.118365
" clip-path="url(#peb3b737fad)" style="fill: none; stroke: #b0b0b0; stroke-opacity: 0.2; stroke-width: 0.8; stroke-linecap: square"/>
     </g>
     <g id="line2d_8">
      <g>
       <use xlink:href="#m695c446bba" x="170.68121" y="218.64351" style="stroke: #000000; stroke-width: 0.8"/>
      </g>
     </g>
     <g id="text_4">
      <text style="font-size: 10px; font-family: 'DejaVu Sans', 'Bitstream Vera Sans', 'Computer Modern Sans Serif', 'Lucida Grande', 'Verdana', 'Geneva', 'Lucid', 'Arial', 'Helvetica', 'Avant Garde', sans-serif; text-anchor: middle" x="170.68121" y="233.241948" transform="rotate(-0 170.68121 233.241948)">2.3</text>
     </g>
    </g>
    <g id="xtick_5">
     <g id="line2d_9">
      <path d="M 212.647262 218.64351
L 212.647262 18.118365
" clip-path="url(#peb3b737fad)" style="fill: none; stroke: #b0b0b0; stroke-opacity: 0.2; stroke-width: 0.8; stroke-linecap: square"/>
     </g>
     <g id="line2d_10">
      <g>
       <use xlink:href="#m695c446bba" x="212.647262" y="218.64351" style="stroke: #000000; stroke-width: 0.8"/>
      </g>
     </g>
     <g id="text_5">
      <text style="font-size: 10px; font-family: 'DejaVu Sans', 'Bitstream Vera Sans', 'Computer Modern Sans Serif', 'Lucida Grande', 'Verdana', 'Geneva', 'Lucid', 'Arial', 'Helvetica', 'Avant Garde', sans-serif; text-anchor: middle" x="212.647262" y="233.241948" transform="rotate(-0 212.647262 233.241948)">2.4</text>
     </g>
    </g>
    <g id="xtick_6">
     <g id="line2d_11">
      <path d="M 254.613315 218.64351
L 254.613315 18.118365
" clip-path="url(#peb3b737fad)" style="fill: none; stroke: #b0b0b0; stroke-opacity: 0.2; stroke-width: 0.8; stroke-linecap: square"/>
     </g>
     <g id="line2d_12">
      <g>
       <use xlink:href="#m695c446bba" x="254.613315" y="218.64351" style="stroke: #000000; stroke-width: 0.8"/>
      </g>
     </g>
     <g id="text_6">
      <text style="font-size: 10px; font-family: 'DejaVu Sans', 'Bitstream Vera Sans', 'Computer Modern Sans Serif', 'Lucida Grande', 'Verdana', 'Geneva', 'Lucid', 'Arial', 'Helvetica', 'Avant Garde', sans-serif; text-anchor: middle" x="254.613315" y="233.241948" transform="rotate(-0 254.613315 233.241948)">2.5</text>
     </g>
    </g>
    <g id="xtick_7">
     <g id="line2d_13">
      <path d="M 296.579367 218.64351
L 296.579367 18.118365
" clip-path="url(#peb3b737fad)" style="fill: none; stroke: #b0b0b0; stroke-opacity: 0.2; stroke-width: 0.8; stroke-linecap: square"/>
     </g>
     <g id="line2d_14">
      <g>
       <use xlink:href="#m695c446bba" x="296.579367" y="218.64351" style="stroke: #000000; stroke-width: 0.8"/>
      </g>
     </g>
     <g id="text_7">
      <text style="font-size: 10px; font-family: 'DejaVu Sans', 'Bitstream Vera Sans', 'Computer Modern Sans Serif', 'Lucida Grande', 'Verdana', 'Geneva', 'Lucid', 'Arial', 'Helvetica', 'Avant Garde', sans-serif; text-anchor: middle" x="296.579367" y="233.241948" transform="rotate(-0 296.579367 233.241948)">2.6</text>
     </g>
    </g>
    <g id="xtick_8">
     <g id="line2d_15">
      <path d="M 338.54542 218.64351
L 338.54542 18.118365
" clip-path="url(#peb3b737fad)" style="fill: none; stroke: #b0b0b0; stroke-opacity: 0.2; stroke-width: 0.8; stroke-linecap: square"/>
     </g>
     <g id="line2d_16">
      <g>
       <use xlink:href="#m695c446bba" x="338.54542" y="218.64351" style="stroke: #000000; stroke-width: 0.8"/>
      </g>
     </g>
     <g id="text_8">
      <text style="font-size: 10px; font-family: 'DejaVu Sans', 'Bitstream Vera Sans', 'Computer Modern Sans Serif', 'Lucida Grande', 'Verdana', 'Geneva', 'Lucid', 'Arial', 'Helvetica', 'Avant Garde', sans-serif; text-anchor: middle" x="338.54542" y="233.241948" transform="rotate(-0 338.54542 233.241948)">2.7</text>
     </g>
    </g>
    <g id="xtick_9">
     <g id="line2d_17">
      <path d="M 380.511472 218.64351
L 380.511472 18.118365
" clip-path="url(#peb3b737fad)" style="fill: none; stroke: #b0b0b0; stroke-opacity: 0.2; stroke-width: 0.8; stroke-linecap: square"/>
     </g>
     <g id="line2d_18">
      <g>
       <use xlink:href="#m695c446bba" x="380.511472" y="218.64351" style="stroke: #000000; stroke-width: 0.8"/>
      </g>
     </g>
     <g id="text_9">
      <text style="font-size: 10px; font-family: 'DejaVu Sans', 'Bitstream Vera Sans', 'Computer Modern Sans Serif', 'Lucida Grande', 'Verdana', 'Geneva', 'Lucid', 'Arial', 'Helvetica', 'Avant Garde', sans-serif; text-anchor: middle" x="380.511472" y="233.241948" transform="rotate(-0 380.511472 233.241948)">2.8</text>
     </g>
    </g>
    <g id="text_10">
     <text style="font-size: 10px; font-family: 'DejaVu Sans', 'Bitstream Vera Sans', 'Computer Modern Sans Serif', 'Lucida Grande', 'Verdana', 'Geneva', 'Lucid', 'Arial', 'Helvetica', 'Avant Garde', sans-serif; text-anchor: middle" x="219.641604" y="246.920073" transform="rotate(-0 219.641604 246.920073)">Simulation time (s)</text>
    </g>
   </g>
   <g id="matplotlib.axis_2">
    <g id="ytick_1">
     <g id="line2d_19">
      <path d="M 44.783053 218.64351
L 394.500156 218.64351
" clip-path="url(#peb3b737fad)" style="fill: none; stroke: #b0b0b0; stroke-opacity: 0.2; stroke-width: 0.8; stroke-linecap: square"/>
     </g>
     <g id="line2d_20">
      <defs>
       <path id="m80a6b57ea9" d="M 0 0
L -3.5 0
" style="stroke: #000000; stroke-width: 0.8"/>
      </defs>
      <g>
       <use xlink:href="#m80a6b57ea9" x="44.783053" y="218.64351" style="stroke: #000000; stroke-width: 0.8"/>
      </g>
     </g>
     <g id="text_11">
      <text style="font-size: 10px; font-family: 'DejaVu Sans', 'Bitstream Vera Sans', 'Computer Modern Sans Serif', 'Lucida Grande', 'Verdana', 'Geneva', 'Lucid', 'Arial', 'Helvetica', 'Avant Garde', sans-serif; text-anchor: end" x="37.783053" y="222.442729" transform="rotate(-0 37.783053 222.442729)">−40</text>
     </g>
    </g>
    <g id="ytick_2">
     <g id="line2d_21">
      <path d="M 44.783053 189.997061
L 394.500156 189.997061
" clip-path="url(#peb3b737fad)" style="fill: none; stroke: #b0b0b0; stroke-opacity: 0.2; stroke-width: 0.8; stroke-linecap: square"/>
     </g>
     <g id="line2d_22">
      <g>
       <use xlink:href="#m80a6b57ea9" x="44.783053" y="189.997061" style="stroke: #000000; stroke-width: 0.8"/>
      </g>
     </g>
     <g id="text_12">
      <text style="font-size: 10px; font-family: 'DejaVu Sans', 'Bitstream Vera Sans', 'Computer Modern Sans Serif', 'Lucida Grande', 'Verdana', 'Geneva', 'Lucid', 'Arial', 'Helvetica', 'Avant Garde', sans-serif; text-anchor: end" x="37.783053" y="193.796279" transform="rotate(-0 37.783053 193.796279)">−20</text>
     </g>
    </g>
    <g id="ytick_3">
     <g id="line2d_23">
      <path d="M 44.783053 161.350611
L 394.500156 161.350611
" clip-path="url(#peb3b737fad)" style="fill: none; stroke: #b0b0b0; stroke-opacity: 0.2; stroke-width: 0.8; stroke-linecap: square"/>
     </g>
     <g id="line2d_24">
      <g>
       <use xlink:href="#m80a6b57ea9" x="44.783053" y="161.350611" style="stroke: #000000; stroke-width: 0.8"/>
      </g>
     </g>
     <g id="text_13">
      <text style="font-size: 10px; font-family: 'DejaVu Sans', 'Bitstream Vera Sans', 'Computer Modern Sans Serif', 'Lucida Grande', 'Verdana', 'Geneva', 'Lucid', 'Arial', 'Helvetica', 'Avant Garde', sans-serif; text-anchor: end" x="37.783053" y="165.14983" transform="rotate(-0 37.783053 165.14983)">0</text>
     </g>
    </g>
    <g id="ytick_4">
     <g id="line2d_25">
      <path d="M 44.783053 132.704162
L 394.500156 132.704162
" clip-path="url(#peb3b737fad)" style="fill: none; stroke: #b0b0b0; stroke-opacity: 0.2; stroke-width: 0.8; stroke-linecap: square"/>
     </g>
     <g id="line2d_26">
      <g>
       <use xlink:href="#m80a6b57ea9" x="44.783053" y="132.704162" style="stroke: #000000; stroke-width: 0.8"/>
      </g>
     </g>
     <g id="text_14">
      <text style="font-size: 10px; font-family: 'DejaVu Sans', 'Bitstream Vera Sans', 'Computer Modern Sans Serif', 'Lucida Grande', 'Verdana', 'Geneva', 'Lucid', 'Arial', 'Helvetica', 'Avant Garde', sans-serif; text-anchor: end" x="37.783053" y="136.503381" transform="rotate(-0 37.783053 136.503381)">20</text>
     </g>
    </g>
    <g id="ytick_5">
     <g id="line2d_27">
      <path d="M 44.783053 104.057713
L 394.500156 104.057713
" clip-path="url(#peb3b737fad)" style="fill: none; stroke: #b0b0b0; stroke-opacity: 0.2; stroke-width: 0.8; stroke-linecap: square"/>
     </g>
     <g id="line2d_28">
      <g>
       <use xlink:href="#m80a6b57ea9" x="44.783053" y="104.057713" style="stroke: #000000; stroke-width: 0.8"/>
      </g>
     </g>
     <g id="text_15">
      <text style="font-size: 10px; font-family: 'DejaVu Sans', 'Bitstream Vera Sans', 'Computer Modern Sans Serif', 'Lucida Grande', 'Verdana', 'Geneva', 'Lucid', 'Arial', 'Helvetica', 'Avant Garde', sans-serif; text-anchor: end" x="37.783053" y="107.856932" transform="rotate(-0 37.783053 107.856932)">40</text>
     </g>
    </g>
    <g id="ytick_6">
     <g id="line2d_29">
      <path d="M 44.783053 75.411264
L 394.500156 75.411264
" clip-path="url(#peb3b737fad)" style="fill: none; stroke: #b0b0b0; stroke-opacity: 0.2; stroke-width: 0.8; stroke-linecap: square"/>
     </g>
     <g id="line2d_30">
      <g>
       <use xlink:href="#m80a6b57ea9" x="44.783053" y="75.411264" style="stroke: #000000; stroke-width: 0.8"/>
      </g>
     </g>
     <g id="text_16">
      <text style="font-size: 10px; font-family: 'DejaVu Sans', 'Bitstream Vera Sans', 'Computer Modern Sans Serif', 'Lucida Grande', 'Verdana', 'Geneva', 'Lucid', 'Arial', 'Helvetica', 'Avant Garde', sans-serif; text-anchor: end" x="37.783053" y="79.210482" transform="rotate(-0 37.783053 79.210482)">60</text>
     </g>
    </g>
    <g id="ytick_7">
     <g id="line2d_31">
      <path d="M 44.783053 46.764814
L 394.500156 46.764814
" clip-path="url(#peb3b737fad)" style="fill: none; stroke: #b0b0b0; stroke-opacity: 0.2; stroke-width: 0.8; stroke-linecap: square"/>
     </g>
     <g id="line2d_32">
      <g>
       <use xlink:href="#m80a6b57ea9" x="44.783053" y="46.764814" style="stroke: #000000; stroke-width: 0.8"/>
      </g>
     </g>
     <g id="text_17">
      <text style="font-size: 10px; font-family: 'DejaVu Sans', 'Bitstream Vera Sans', 'Computer Modern Sans Serif', 'Lucida Grande', 'Verdana', 'Geneva', 'Lucid', 'Arial', 'Helvetica', 'Avant Garde', sans-serif; text-anchor: end" x="37.783053" y="50.564033" transform="rotate(-0 37.783053 50.564033)">80</text>
     </g>
    </g>
    <g id="ytick_8">
     <g id="line2d_33">
      <path d="M 44.783053 18.118365
L 394.500156 18.118365
" clip-path="url(#peb3b737fad)" style="fill: none; stroke: #b0b0b0; stroke-opacity: 0.2; stroke-width: 0.8; stroke-linecap: square"/>
     </g>
     <g id="line2d_34">
      <g>
       <use xlink:href="#m80a6b57ea9" x="44.783053" y="18.118365" style="stroke: #000000; stroke-width: 0.8"/>
      </g>
     </g>
     <g id="text_18">
      <text style="font-size: 10px; font-family: 'DejaVu Sans', 'Bitstream Vera Sans', 'Computer Modern Sans Serif', 'Lucida Grande', 'Verdana', 'Geneva', 'Lucid', 'Arial', 'Helvetica', 'Avant Garde', sans-serif; text-anchor: end" x="37.783053" y="21.917584" transform="rotate(-0 37.783053 21.917584)">100</text>
     </g>
    </g>
    <g id="text_19">
     <text style="font-size: 10px; font-family: 'DejaVu Sans', 'Bitstream Vera Sans', 'Computer Modern Sans Serif', 'Lucida Grande', 'Verdana', 'Geneva', 'Lucid', 'Arial', 'Helvetica', 'Avant Garde', sans-serif; text-anchor: middle" x="10.598678" y="118.380937" transform="rotate(-90 10.598678 118.380937)">Margin rate (mm/s)</text>
    </g>
   </g>
   <g id="line2d_35">
    <path d="M 44.783053 122.145926
L 51.777395 122.07617
L 58.771737 122.789865
L 65.766079 124.217183
L 72.760421 122.935653
L 79.754763 119.478753
L 86.749105 119.136474
L 93.743447 116.866666
L 100.737789 114.135525
L 107.732131 108.703028
L 114.726473 101.162484
L 121.720815 97.420017
L 128.715157 93.407135
L 135.709499 90.390499
L 142.703842 87.840944
L 149.698184 87.050518
L 156.692526 86.146428
L 163.686868 87.837972
L 170.68121 87.382256
L 177.675552 92.936223
L 184.669894 93.323406
L 191.664236 94.627522
L 198.658578 97.001624
L 205.65292 95.481098
L 212.647262 96.19645
L 219.641604 96.337016
L 226.635946 94.764834
L 233.630289 92.004045
L 240.624631 90.690521
L 247.618973 87.241348
L 254.613315 83.669045
L 261.607657 80.567399
L 268.601999 84.773084
L 275.596341 82.800011
L 282.590683 81.553735
L 289.585025 80.248899
L 296.579367 77.119751
L 303.573709 75.889515
L 310.568051 72.942735
L 317.562393 69.537283
L 324.556735 67.879562
L 331.551078 71.496862
L 338.54542 75.605975
L 345.539762 83.584771
L 352.534104 83.030743
L 359.528446 85.492176
L 366.522788 88.039714
L 373.51713 90.880236
L 380.511472 88.594458
L 387.505814 85.880619
L 394.500156 83.598148
" clip-path="url(#peb3b737fad)" style="fill: none; stroke: #dc2626; stroke-width: 1.7; stroke-linecap: square"/>
   </g>
   <g id="line2d_36">
    <path d="M 44.783053 168.782766
L 51.777395 167.572914
L 58.771737 167.407409
L 65.766079 169.993426
L 72.760421 173.226741
L 79.754763 175.005434
L 86.749105 178.223803
L 93.743447 181.332314
L 100.737789 186.256655
L 107.732131 188.585723
L 114.726473 187.126369
L 121.720815 186.548711
L 128.715157 187.326382
L 135.709499 186.672755
L 142.703842 184.29308
L 149.698184 181.133815
L 156.692526 176.888274
L 163.686868 174.398127
L 170.68121 171.604763
L 177.675552 171.023893
L 184.669894 169.706708
L 191.664236 169.832519
L 198.658578 174.273861
L 205.65292 177.553404
L 212.647262 179.080027
L 219.641604 179.650571
L 226.635946 178.569724
L 233.630289 177.626263
L 240.624631 178.314065
L 247.618973 176.178845
L 254.613315 170.796501
L 261.607657 165.021495
L 268.601999 164.808674
L 275.596341 161.206158
L 282.590683 159.763092
L 289.585025 157.228772
L 296.579367 156.066785
L 303.573709 157.608542
L 310.568051 157.603312
L 317.562393 154.073796
L 324.556735 148.614054
L 331.551078 145.994027
L 338.54542 144.343949
L 345.539762 146.203721
L 352.534104 144.872532
L 359.528446 145.971364
L 366.522788 145.548419
L 373.51713 147.209236
L 380.511472 146.485397
L 387.505814 144.779299
L 394.500156 143.0624
" clip-path="url(#peb3b737fad)" style="fill: none; stroke: #15803d; stroke-width: 1.7; stroke-linecap: square"/>
   </g>
   <g id="line2d_37">
    <path d="M 44.783053 168.840507
L 51.777395 167.622387
L 58.771737 167.4479
L 65.766079 170.024439
L 72.760421 173.264644
L 79.754763 175.05358
L 86.749105 178.287016
L 93.743447 181.398947
L 100.737789 186.33149
L 107.732131 188.678953
L 114.726473 187.229556
L 121.720815 186.648195
L 128.715157 187.427291
L 135.709499 186.794775
L 142.703842 184.427817
L 149.698184 181.283052
L 156.692526 177.035312
L 163.686868 174.531999
L 170.68121 171.729156
L 177.675552 171.13606
L 184.669894 169.807108
L 191.664236 169.927587
L 198.658578 174.363339
L 205.65292 177.652874
L 212.647262 179.193434
L 219.641604 179.763411
L 226.635946 178.68304
L 233.630289 177.740179
L 240.624631 178.428559
L 247.618973 176.302232
L 254.613315 170.920565
L 261.607657 165.138272
L 268.601999 164.906705
L 275.596341 161.287809
L 282.590683 159.836338
L 289.585025 157.295263
L 296.579367 156.126955
L 303.573709 157.677564
L 310.568051 157.688685
L 317.562393 154.173703
L 324.556735 148.709527
L 331.551078 146.074629
L 338.54542 144.407558
L 345.539762 146.250684
L 352.534104 144.912838
L 359.528446 146.006479
L 366.522788 145.578369
L 373.51713 147.234345
L 380.511472 146.510864
L 387.505814 144.807067
L 394.500156 143.092065
" clip-path="url(#peb3b737fad)" style="fill: none; stroke: #2563eb; stroke-width: 1.7; stroke-linecap: square"/>
   </g>
   <g id="line2d_38">
    <path d="M 44.783053 161.350611
L 394.500156 161.350611
" clip-path="url(#peb3b737fad)" style="fill: none; stroke-dasharray: 2.96,1.28; stroke-dashoffset: 0; stroke: #4c4c4c; stroke-width: 0.8"/>
   </g>
   <g id="patch_3">
    <path d="M 44.783053 218.64351
L 44.783053 18.118365
" style="fill: none; stroke: #000000; stroke-width: 0.8; stroke-linejoin: miter; stroke-linecap: square"/>
   </g>
   <g id="patch_4">
    <path d="M 394.500156 218.64351
L 394.500156 18.118365
" style="fill: none; stroke: #000000; stroke-width: 0.8; stroke-linejoin: miter; stroke-linecap: square"/>
   </g>
   <g id="patch_5">
    <path d="M 44.783053 218.64351
L 394.500156 218.64351
" style="fill: none; stroke: #000000; stroke-width: 0.8; stroke-linejoin: miter; stroke-linecap: square"/>
   </g>
   <g id="patch_6">
    <path d="M 44.783053 18.118365
L 394.500156 18.118365
" style="fill: none; stroke: #000000; stroke-width: 0.8; stroke-linejoin: miter; stroke-linecap: square"/>
   </g>
   <g id="text_20">
    <text style="font-size: 12px; font-family: 'DejaVu Sans', 'Bitstream Vera Sans', 'Computer Modern Sans Serif', 'Lucida Grande', 'Verdana', 'Geneva', 'Lucid', 'Arial', 'Helvetica', 'Avant Garde', sans-serif; text-anchor: middle" x="219.641604" y="12.118365" transform="rotate(-0 219.641604 12.118365)">Same legacy state: row7276 / env2</text>
   </g>
   <g id="legend_1">
    <g id="patch_7">
     <path d="M 275.578906 59.745865
L 388.900156 59.745865
Q 390.500156 59.745865 390.500156 58.145865
L 390.500156 23.718365
Q 390.500156 22.118365 388.900156 22.118365
L 275.578906 22.118365
Q 273.978906 22.118365 273.978906 23.718365
L 273.978906 58.145865
Q 273.978906 59.745865 275.578906 59.745865
z
" style="fill: #ffffff; opacity: 0.8; stroke: #cccccc; stroke-linejoin: miter"/>
    </g>
    <g id="line2d_39">
     <path d="M 277.178906 28.597115
L 285.178906 28.597115
L 293.178906 28.597115
" style="fill: none; stroke: #dc2626; stroke-width: 1.7; stroke-linecap: square"/>
    </g>
    <g id="text_21">
     <text style="font-size: 8px; font-family: 'DejaVu Sans', 'Bitstream Vera Sans', 'Computer Modern Sans Serif', 'Lucida Grande', 'Verdana', 'Geneva', 'Lucid', 'Arial', 'Helvetica', 'Avant Garde', sans-serif; text-anchor: start" x="299.578906" y="31.397115" transform="rotate(-0 299.578906 31.397115)">Legacy link prediction</text>
    </g>
    <g id="line2d_40">
     <path d="M 277.178906 40.339615
L 285.178906 40.339615
L 293.178906 40.339615
" style="fill: none; stroke: #15803d; stroke-width: 1.7; stroke-linecap: square"/>
    </g>
    <g id="text_22">
     <text style="font-size: 8px; font-family: 'DejaVu Sans', 'Bitstream Vera Sans', 'Computer Modern Sans Serif', 'Lucida Grande', 'Verdana', 'Geneva', 'Lucid', 'Arial', 'Helvetica', 'Avant Garde', sans-serif; text-anchor: start" x="299.578906" y="43.139615" transform="rotate(-0 299.578906 43.139615)">COM prediction</text>
    </g>
    <g id="line2d_41">
     <path d="M 277.178906 52.082115
L 285.178906 52.082115
L 293.178906 52.082115
" style="fill: none; stroke: #2563eb; stroke-width: 1.7; stroke-linecap: square"/>
    </g>
    <g id="text_23">
     <text style="font-size: 8px; font-family: 'DejaVu Sans', 'Bitstream Vera Sans', 'Computer Modern Sans Serif', 'Lucida Grande', 'Verdana', 'Geneva', 'Lucid', 'Arial', 'Helvetica', 'Avant Garde', sans-serif; text-anchor: start" x="299.578906" y="54.882115" transform="rotate(-0 299.578906 54.882115)">Body velocity</text>
    </g>
   </g>
  </g>
  <g id="axes_2">
   <g id="patch_8">
    <path d="M 436.101406 218.64351
L 785.81851 218.64351
L 785.81851 18.118365
L 436.101406 18.118365
z
" style="fill: #ffffff"/>
   </g>
   <g id="matplotlib.axis_3">
    <g id="xtick_10">
     <g id="line2d_42">
      <path d="M 436.101406 218.64351
L 436.101406 18.118365
" clip-path="url(#pe609ffa81c)" style="fill: none; stroke: #b0b0b0; stroke-opacity: 0.2; stroke-width: 0.8; stroke-linecap: square"/>
     </g>
     <g id="line2d_43">
      <g>
       <use xlink:href="#m695c446bba" x="436.101406" y="218.64351" style="stroke: #000000; stroke-width: 0.8"/>
      </g>
     </g>
     <g id="text_24">
      <text style="font-size: 10px; font-family: 'DejaVu Sans', 'Bitstream Vera Sans', 'Computer Modern Sans Serif', 'Lucida Grande', 'Verdana', 'Geneva', 'Lucid', 'Arial', 'Helvetica', 'Avant Garde', sans-serif; text-anchor: middle" x="436.101406" y="233.241948" transform="rotate(-0 436.101406 233.241948)">0</text>
     </g>
    </g>
    <g id="xtick_11">
     <g id="line2d_44">
      <path d="M 506.044827 218.64351
L 506.044827 18.118365
" clip-path="url(#pe609ffa81c)" style="fill: none; stroke: #b0b0b0; stroke-opacity: 0.2; stroke-width: 0.8; stroke-linecap: square"/>
     </g>
     <g id="line2d_45">
      <g>
       <use xlink:href="#m695c446bba" x="506.044827" y="218.64351" style="stroke: #000000; stroke-width: 0.8"/>
      </g>
     </g>
     <g id="text_25">
      <text style="font-size: 10px; font-family: 'DejaVu Sans', 'Bitstream Vera Sans', 'Computer Modern Sans Serif', 'Lucida Grande', 'Verdana', 'Geneva', 'Lucid', 'Arial', 'Helvetica', 'Avant Garde', sans-serif; text-anchor: middle" x="506.044827" y="233.241948" transform="rotate(-0 506.044827 233.241948)">1</text>
     </g>
    </g>
    <g id="xtick_12">
     <g id="line2d_46">
      <path d="M 575.988248 218.64351
L 575.988248 18.118365
" clip-path="url(#pe609ffa81c)" style="fill: none; stroke: #b0b0b0; stroke-opacity: 0.2; stroke-width: 0.8; stroke-linecap: square"/>
     </g>
     <g id="line2d_47">
      <g>
       <use xlink:href="#m695c446bba" x="575.988248" y="218.64351" style="stroke: #000000; stroke-width: 0.8"/>
      </g>
     </g>
     <g id="text_26">
      <text style="font-size: 10px; font-family: 'DejaVu Sans', 'Bitstream Vera Sans', 'Computer Modern Sans Serif', 'Lucida Grande', 'Verdana', 'Geneva', 'Lucid', 'Arial', 'Helvetica', 'Avant Garde', sans-serif; text-anchor: middle" x="575.988248" y="233.241948" transform="rotate(-0 575.988248 233.241948)">2</text>
     </g>
    </g>
    <g id="xtick_13">
     <g id="line2d_48">
      <path d="M 645.931669 218.64351
L 645.931669 18.118365
" clip-path="url(#pe609ffa81c)" style="fill: none; stroke: #b0b0b0; stroke-opacity: 0.2; stroke-width: 0.8; stroke-linecap: square"/>
     </g>
     <g id="line2d_49">
      <g>
       <use xlink:href="#m695c446bba" x="645.931669" y="218.64351" style="stroke: #000000; stroke-width: 0.8"/>
      </g>
     </g>
     <g id="text_27">
      <text style="font-size: 10px; font-family: 'DejaVu Sans', 'Bitstream Vera Sans', 'Computer Modern Sans Serif', 'Lucida Grande', 'Verdana', 'Geneva', 'Lucid', 'Arial', 'Helvetica', 'Avant Garde', sans-serif; text-anchor: middle" x="645.931669" y="233.241948" transform="rotate(-0 645.931669 233.241948)">3</text>
     </g>
    </g>
    <g id="xtick_14">
     <g id="line2d_50">
      <path d="M 715.875089 218.64351
L 715.875089 18.118365
" clip-path="url(#pe609ffa81c)" style="fill: none; stroke: #b0b0b0; stroke-opacity: 0.2; stroke-width: 0.8; stroke-linecap: square"/>
     </g>
     <g id="line2d_51">
      <g>
       <use xlink:href="#m695c446bba" x="715.875089" y="218.64351" style="stroke: #000000; stroke-width: 0.8"/>
      </g>
     </g>
     <g id="text_28">
      <text style="font-size: 10px; font-family: 'DejaVu Sans', 'Bitstream Vera Sans', 'Computer Modern Sans Serif', 'Lucida Grande', 'Verdana', 'Geneva', 'Lucid', 'Arial', 'Helvetica', 'Avant Garde', sans-serif; text-anchor: middle" x="715.875089" y="233.241948" transform="rotate(-0 715.875089 233.241948)">4</text>
     </g>
    </g>
    <g id="xtick_15">
     <g id="line2d_52">
      <path d="M 785.81851 218.64351
L 785.81851 18.118365
" clip-path="url(#pe609ffa81c)" style="fill: none; stroke: #b0b0b0; stroke-opacity: 0.2; stroke-width: 0.8; stroke-linecap: square"/>
     </g>
     <g id="line2d_53">
      <g>
       <use xlink:href="#m695c446bba" x="785.81851" y="218.64351" style="stroke: #000000; stroke-width: 0.8"/>
      </g>
     </g>
     <g id="text_29">
      <text style="font-size: 10px; font-family: 'DejaVu Sans', 'Bitstream Vera Sans', 'Computer Modern Sans Serif', 'Lucida Grande', 'Verdana', 'Geneva', 'Lucid', 'Arial', 'Helvetica', 'Avant Garde', sans-serif; text-anchor: middle" x="785.81851" y="233.241948" transform="rotate(-0 785.81851 233.241948)">5</text>
     </g>
    </g>
    <g id="text_30">
     <text style="font-size: 10px; font-family: 'DejaVu Sans', 'Bitstream Vera Sans', 'Computer Modern Sans Serif', 'Lucida Grande', 'Verdana', 'Geneva', 'Lucid', 'Arial', 'Helvetica', 'Avant Garde', sans-serif; text-anchor: middle" x="610.959958" y="246.920073" transform="rotate(-0 610.959958 246.920073)">Simulation time (s)</text>
    </g>
   </g>
   <g id="matplotlib.axis_4">
    <g id="ytick_9">
     <g id="line2d_54">
      <path d="M 436.101406 218.64351
L 785.81851 218.64351
" clip-path="url(#pe609ffa81c)" style="fill: none; stroke: #b0b0b0; stroke-opacity: 0.2; stroke-width: 0.8; stroke-linecap: square"/>
     </g>
     <g id="line2d_55">
      <g>
       <use xlink:href="#m80a6b57ea9" x="436.101406" y="218.64351" style="stroke: #000000; stroke-width: 0.8"/>
      </g>
     </g>
     <g id="text_31">
      <text style="font-size: 10px; font-family: 'DejaVu Sans', 'Bitstream Vera Sans', 'Computer Modern Sans Serif', 'Lucida Grande', 'Verdana', 'Geneva', 'Lucid', 'Arial', 'Helvetica', 'Avant Garde', sans-serif; text-anchor: end" x="429.101406" y="222.442729" transform="rotate(-0 429.101406 222.442729)">0</text>
     </g>
    </g>
    <g id="ytick_10">
     <g id="line2d_56">
      <path d="M 436.101406 185.222652
L 785.81851 185.222652
" clip-path="url(#pe609ffa81c)" style="fill: none; stroke: #b0b0b0; stroke-opacity: 0.2; stroke-width: 0.8; stroke-linecap: square"/>
     </g>
     <g id="line2d_57">
      <g>
       <use xlink:href="#m80a6b57ea9" x="436.101406" y="185.222652" style="stroke: #000000; stroke-width: 0.8"/>
      </g>
     </g>
     <g id="text_32">
      <text style="font-size: 10px; font-family: 'DejaVu Sans', 'Bitstream Vera Sans', 'Computer Modern Sans Serif', 'Lucida Grande', 'Verdana', 'Geneva', 'Lucid', 'Arial', 'Helvetica', 'Avant Garde', sans-serif; text-anchor: end" x="429.101406" y="189.021871" transform="rotate(-0 429.101406 189.021871)">10</text>
     </g>
    </g>
    <g id="ytick_11">
     <g id="line2d_58">
      <path d="M 436.101406 151.801795
L 785.81851 151.801795
" clip-path="url(#pe609ffa81c)" style="fill: none; stroke: #b0b0b0; stroke-opacity: 0.2; stroke-width: 0.8; stroke-linecap: square"/>
     </g>
     <g id="line2d_59">
      <g>
       <use xlink:href="#m80a6b57ea9" x="436.101406" y="151.801795" style="stroke: #000000; stroke-width: 0.8"/>
      </g>
     </g>
     <g id="text_33">
      <text style="font-size: 10px; font-family: 'DejaVu Sans', 'Bitstream Vera Sans', 'Computer Modern Sans Serif', 'Lucida Grande', 'Verdana', 'Geneva', 'Lucid', 'Arial', 'Helvetica', 'Avant Garde', sans-serif; text-anchor: end" x="429.101406" y="155.601014" transform="rotate(-0 429.101406 155.601014)">20</text>
     </g>
    </g>
    <g id="ytick_12">
     <g id="line2d_60">
      <path d="M 436.101406 118.380937
L 785.81851 118.380937
" clip-path="url(#pe609ffa81c)" style="fill: none; stroke: #b0b0b0; stroke-opacity: 0.2; stroke-width: 0.8; stroke-linecap: square"/>
     </g>
     <g id="line2d_61">
      <g>
       <use xlink:href="#m80a6b57ea9" x="436.101406" y="118.380937" style="stroke: #000000; stroke-width: 0.8"/>
      </g>
     </g>
     <g id="text_34">
      <text style="font-size: 10px; font-family: 'DejaVu Sans', 'Bitstream Vera Sans', 'Computer Modern Sans Serif', 'Lucida Grande', 'Verdana', 'Geneva', 'Lucid', 'Arial', 'Helvetica', 'Avant Garde', sans-serif; text-anchor: end" x="429.101406" y="122.180156" transform="rotate(-0 429.101406 122.180156)">30</text>
     </g>
    </g>
    <g id="ytick_13">
     <g id="line2d_62">
      <path d="M 436.101406 84.96008
L 785.81851 84.96008
" clip-path="url(#pe609ffa81c)" style="fill: none; stroke: #b0b0b0; stroke-opacity: 0.2; stroke-width: 0.8; stroke-linecap: square"/>
     </g>
     <g id="line2d_63">
      <g>
       <use xlink:href="#m80a6b57ea9" x="436.101406" y="84.96008" style="stroke: #000000; stroke-width: 0.8"/>
      </g>
     </g>
     <g id="text_35">
      <text style="font-size: 10px; font-family: 'DejaVu Sans', 'Bitstream Vera Sans', 'Computer Modern Sans Serif', 'Lucida Grande', 'Verdana', 'Geneva', 'Lucid', 'Arial', 'Helvetica', 'Avant Garde', sans-serif; text-anchor: end" x="429.101406" y="88.759299" transform="rotate(-0 429.101406 88.759299)">40</text>
     </g>
    </g>
    <g id="ytick_14">
     <g id="line2d_64">
      <path d="M 436.101406 51.539222
L 785.81851 51.539222
" clip-path="url(#pe609ffa81c)" style="fill: none; stroke: #b0b0b0; stroke-opacity: 0.2; stroke-width: 0.8; stroke-linecap: square"/>
     </g>
     <g id="line2d_65">
      <g>
       <use xlink:href="#m80a6b57ea9" x="436.101406" y="51.539222" style="stroke: #000000; stroke-width: 0.8"/>
      </g>
     </g>
     <g id="text_36">
      <text style="font-size: 10px; font-family: 'DejaVu Sans', 'Bitstream Vera Sans', 'Computer Modern Sans Serif', 'Lucida Grande', 'Verdana', 'Geneva', 'Lucid', 'Arial', 'Helvetica', 'Avant Garde', sans-serif; text-anchor: end" x="429.101406" y="55.338441" transform="rotate(-0 429.101406 55.338441)">50</text>
     </g>
    </g>
    <g id="ytick_15">
     <g id="line2d_66">
      <path d="M 436.101406 18.118365
L 785.81851 18.118365
" clip-path="url(#pe609ffa81c)" style="fill: none; stroke: #b0b0b0; stroke-opacity: 0.2; stroke-width: 0.8; stroke-linecap: square"/>
     </g>
     <g id="line2d_67">
      <g>
       <use xlink:href="#m80a6b57ea9" x="436.101406" y="18.118365" style="stroke: #000000; stroke-width: 0.8"/>
      </g>
     </g>
     <g id="text_37">
      <text style="font-size: 10px; font-family: 'DejaVu Sans', 'Bitstream Vera Sans', 'Computer Modern Sans Serif', 'Lucida Grande', 'Verdana', 'Geneva', 'Lucid', 'Arial', 'Helvetica', 'Avant Garde', sans-serif; text-anchor: end" x="429.101406" y="21.917584" transform="rotate(-0 429.101406 21.917584)">60</text>
     </g>
    </g>
    <g id="text_38">
     <text style="font-size: 10px; font-family: 'DejaVu Sans', 'Bitstream Vera Sans', 'Computer Modern Sans Serif', 'Lucida Grande', 'Verdana', 'Geneva', 'Lucid', 'Arial', 'Helvetica', 'Avant Garde', sans-serif; text-anchor: middle" x="410.018594" y="118.380937" transform="rotate(-90 410.018594 118.380937)">Measured self_U margin (mm)</text>
    </g>
   </g>
   <g id="line2d_68">
    <path d="M 437.26713 26.001903
L 438.432854 26.4657
L 439.598577 27.09762
L 441.930025 28.822323
L 445.427196 32.009087
L 447.758643 34.374787
L 450.09009 37.097499
L 454.752985 43.871883
L 458.250156 49.07881
L 459.41588 50.645055
L 460.581604 52.015081
L 462.913051 54.249198
L 465.244498 56.127094
L 469.907393 59.759832
L 475.736011 64.024936
L 478.067459 66.064529
L 479.233182 67.218712
L 481.56463 70.053832
L 485.061801 74.67721
L 489.724695 81.424489
L 497.884761 94.294651
L 501.381932 98.545208
L 502.547656 100.002934
L 504.879103 103.344624
L 516.53634 121.454248
L 523.530682 133.670128
L 528.193577 142.407852
L 534.022195 153.067998
L 535.187919 154.813171
L 538.68509 159.168117
L 539.850814 160.612692
L 542.182261 163.04069
L 545.679432 166.363111
L 546.845156 167.548523
L 553.839498 175.769117
L 556.170945 178.60339
L 558.502393 181.561219
L 565.496735 189.899194
L 566.662458 190.996708
L 567.828182 191.838492
L 570.159629 192.929084
L 574.822524 194.318132
L 580.651142 196.050908
L 581.816866 196.635918
L 582.98259 197.362316
L 584.148314 198.220137
L 586.479761 200.457196
L 591.142656 204.871054
L 593.474103 206.735255
L 595.80555 207.988645
L 598.136998 208.867781
L 600.468445 209.60608
L 601.634169 210.161809
L 603.965616 211.632182
L 607.462787 213.88707
L 609.794234 215.274127
L 610.959958 215.700771
L 613.291405 216.028661
L 615.622853 215.971838
L 620.285748 215.266059
L 621.451471 214.964813
L 622.617195 214.432241
L 627.28009 211.678299
L 634.274432 207.586602
L 643.600221 201.21168
L 645.931669 200.030302
L 648.263116 199.105101
L 652.926011 197.472375
L 656.423182 196.759574
L 658.754629 196.725958
L 661.086076 197.113112
L 668.080418 199.198029
L 672.743313 200.810136
L 675.07476 201.521443
L 680.903379 202.98061
L 687.897721 205.403029
L 689.063445 205.656217
L 691.394892 205.682811
L 693.726339 205.490778
L 696.057787 205.02479
L 699.554958 204.077477
L 705.383576 202.17996
L 711.212195 200.364665
L 714.709366 199.768996
L 719.37226 199.111375
L 722.869431 198.141203
L 726.366602 196.893938
L 734.526668 193.841138
L 736.858115 193.151494
L 746.183905 191.052434
L 752.012523 190.221356
L 755.509694 189.839582
L 760.172589 189.478724
L 770.664102 188.318114
L 774.161273 188.23893
L 782.321339 188.254468
L 785.81851 188.36134
L 785.81851 188.36134
" clip-path="url(#pe609ffa81c)" style="fill: none; stroke: #dc2626; stroke-width: 1.7; stroke-linecap: square"/>
   </g>
   <g id="line2d_69">
    <path d="M 437.26713 26.001903
L 438.432854 26.4657
L 439.598577 27.09762
L 441.930025 28.822323
L 445.427196 32.009087
L 447.758643 34.374787
L 450.09009 37.097499
L 454.752985 43.871883
L 458.250156 49.07881
L 459.41588 50.645055
L 460.581604 52.015081
L 462.913051 54.250944
L 465.244498 56.13227
L 471.073117 60.709726
L 474.570288 63.302269
L 475.736011 64.219257
L 478.067459 66.490181
L 479.233182 67.829277
L 481.56463 71.101345
L 485.061801 76.394889
L 490.890419 85.867481
L 493.221867 89.980144
L 497.884761 98.53186
L 501.381932 103.823721
L 503.71338 107.593996
L 513.039169 123.755604
L 520.033511 135.730992
L 522.364959 139.36143
L 524.696406 142.697695
L 527.027853 145.749249
L 529.359301 148.512854
L 531.690748 151.030542
L 534.022195 153.313966
L 536.353643 155.379062
L 539.850814 158.107109
L 543.347985 160.462795
L 546.845156 162.471465
L 550.342327 164.223662
L 553.839498 165.757283
L 557.336669 167.074071
L 560.83384 168.181743
L 564.331011 169.088069
L 567.828182 169.56372
L 572.491077 169.872337
L 579.485419 170.065265
L 591.142656 170.144299
L 670.411866 170.145743
L 785.81851 170.146141
L 785.81851 170.146141
" clip-path="url(#pe609ffa81c)" style="fill: none; stroke: #15803d; stroke-width: 1.7; stroke-linecap: square"/>
   </g>
   <g id="line2d_70">
    <path d="M 436.101406 218.64351
L 785.81851 218.64351
" clip-path="url(#pe609ffa81c)" style="fill: none; stroke-dasharray: 2.96,1.28; stroke-dashoffset: 0; stroke: #4c4c4c; stroke-width: 0.8"/>
   </g>
   <g id="patch_9">
    <path d="M 436.101406 218.64351
L 436.101406 18.118365
" style="fill: none; stroke: #000000; stroke-width: 0.8; stroke-linejoin: miter; stroke-linecap: square"/>
   </g>
   <g id="patch_10">
    <path d="M 785.81851 218.64351
L 785.81851 18.118365
" style="fill: none; stroke: #000000; stroke-width: 0.8; stroke-linejoin: miter; stroke-linecap: square"/>
   </g>
   <g id="patch_11">
    <path d="M 436.101406 218.64351
L 785.81851 218.64351
" style="fill: none; stroke: #000000; stroke-width: 0.8; stroke-linejoin: miter; stroke-linecap: square"/>
   </g>
   <g id="patch_12">
    <path d="M 436.101406 18.118365
L 785.81851 18.118365
" style="fill: none; stroke: #000000; stroke-width: 0.8; stroke-linejoin: miter; stroke-linecap: square"/>
   </g>
   <g id="text_39">
    <text style="font-size: 12px; font-family: 'DejaVu Sans', 'Bitstream Vera Sans', 'Computer Modern Sans Serif', 'Lucida Grande', 'Verdana', 'Geneva', 'Lucid', 'Arial', 'Helvetica', 'Avant Garde', sans-serif; text-anchor: middle" x="610.959958" y="12.118365" transform="rotate(-0 610.959958 12.118365)">Matched seed / initial pose: env2</text>
   </g>
   <g id="legend_2">
    <g id="patch_13">
     <path d="M 671.23351 48.003365
L 780.21851 48.003365
Q 781.81851 48.003365 781.81851 46.403365
L 781.81851 23.718365
Q 781.81851 22.118365 780.21851 22.118365
L 671.23351 22.118365
Q 669.63351 22.118365 669.63351 23.718365
L 669.63351 46.403365
Q 669.63351 48.003365 671.23351 48.003365
z
" style="fill: #ffffff; opacity: 0.8; stroke: #cccccc; stroke-linejoin: miter"/>
    </g>
    <g id="line2d_71">
     <path d="M 672.83351 28.597115
L 680.83351 28.597115
L 688.83351 28.597115
" style="fill: none; stroke: #dc2626; stroke-width: 1.7; stroke-linecap: square"/>
    </g>
    <g id="text_40">
     <text style="font-size: 8px; font-family: 'DejaVu Sans', 'Bitstream Vera Sans', 'Computer Modern Sans Serif', 'Lucida Grande', 'Verdana', 'Geneva', 'Lucid', 'Arial', 'Helvetica', 'Avant Garde', sans-serif; text-anchor: start" x="695.23351" y="31.397115" transform="rotate(-0 695.23351 31.397115)">Legacy lag guard</text>
    </g>
    <g id="line2d_72">
     <path d="M 672.83351 40.339615
L 680.83351 40.339615
L 688.83351 40.339615
" style="fill: none; stroke: #15803d; stroke-width: 1.7; stroke-linecap: square"/>
    </g>
    <g id="text_41">
     <text style="font-size: 8px; font-family: 'DejaVu Sans', 'Bitstream Vera Sans', 'Computer Modern Sans Serif', 'Lucida Grande', 'Verdana', 'Geneva', 'Lucid', 'Arial', 'Helvetica', 'Avant Garde', sans-serif; text-anchor: start" x="695.23351" y="43.139615" transform="rotate(-0 695.23351 43.139615)">Combined correction</text>
    </g>
   </g>
  </g>
 </g>
 <defs>
  <clipPath id="peb3b737fad">
   <rect x="44.783053" y="18.118365" width="349.717104" height="200.525145"/>
  </clipPath>
  <clipPath id="pe609ffa81c">
   <rect x="436.101406" y="18.118365" width="349.717104" height="200.525145"/>
  </clipPath>
 </defs>
</svg>
