<?xml version="1.0" encoding="utf-8" standalone="no"?>
<!DOCTYPE svg PUBLIC "-//W3C//DTD SVG 1.1//EN"
  "http://www.w3.org/Graphics/SVG/1.1/DTD/svg11.dtd">
<svg xmlns:xlink="http://www.w3.org/1999/xlink" width="648pt" height="576pt" viewBox="0 0 648 576" xmlns="http://www.w3.org/2000/svg" version="1.1">
 <metadata>
  <rdf:RDF xmlns:dc="http://purl.org/dc/elements/1.1/" xmlns:cc="http://creativecommons.org/ns#" xmlns:rdf="http://www.w3.org/1999/02/22-rdf-syntax-ns#">
   <cc:Work>
    <dc:type rdf:resource="http://purl.org/dc/dcmitype/StillImage"/>
    <dc:date>2026-10-10T08:34:24.422889</dc:date>
    <dc:format>image/svg+xml</dc:format>
    <dc:creator>
     <cc:Agent>
      <dc:title>Matplotlib v3.10.3, https://matplotlib.org/</dc:title>
     </cc:Agent>
    </dc:creator>
   </cc:Work>
  </rdf:RDF>
 </metadata>
 <defs>
  <style type="text/css">*{stroke-linejoin: round; stroke-linecap: butt}</style>
 </defs>
 <g id="figure_1">
  <g id="patch_1">
   <path d="M 0 576
L 648 576
L 648 0
L 0 0
z
" style="fill: #ffffff"/>
  </g>
  <g id="axes_1">
   <g id="patch_2">
    <path d="M 56 177.773333
L 637.2 177.773333
L 637.2 34.56
L 56 34.56
z
" style="fill: #ffffff"/>
   </g>
   <g id="matplotlib.axis_1">
    <g id="xtick_1">
     <g id="line2d_1">
      <path d="M 79.112466 177.773333
L 79.112466 34.56
" clip-path="url(#pdaf0172f99)" style="fill: none; stroke: #b0b0b0; stroke-opacity: 0.2; stroke-width: 0.8; stroke-linecap: square"/>
     </g>
     <g id="line2d_2">
      <defs>
       <path id="m5a835ee6a5" d="M 0 0
L 0 3.5
" style="stroke: #000000; stroke-width: 0.8"/>
      </defs>
      <g>
       <use xlink:href="#m5a835ee6a5" x="79.112466" y="177.773333" style="stroke: #000000; stroke-width: 0.8"/>
      </g>
     </g>
     <g id="text_1">
      <!-- 0 -->
      <g transform="translate(75.931216 192.371771) scale(0.1 -0.1)">
       <defs>
        <path id="DejaVuSans-30" d="M 2034 4250
Q 1547 4250 1301 3770
Q 1056 3291 1056 2328
Q 1056 1369 1301 889
Q 1547 409 2034 409
Q 2525 409 2770 889
Q 3016 1369 3016 2328
Q 3016 3291 2770 3770
Q 2525 4250 2034 4250
z
M 2034 4750
Q 2819 4750 3233 4129
Q 3647 3509 3647 2328
Q 3647 1150 3233 529
Q 2819 -91 2034 -91
Q 1250 -91 836 529
Q 422 1150 422 2328
Q 422 3509 836 4129
Q 1250 4750 2034 4750
z
" transform="scale(0.015625)"/>
       </defs>
       <use xlink:href="#DejaVuSans-30"/>
      </g>
     </g>
    </g>
    <g id="xtick_2">
     <g id="line2d_3">
      <path d="M 145.226786 177.773333
L 145.226786 34.56
" clip-path="url(#pdaf0172f99)" style="fill: none; stroke: #b0b0b0; stroke-opacity: 0.2; stroke-width: 0.8; stroke-linecap: square"/>
     </g>
     <g id="line2d_4">
      <g>
       <use xlink:href="#m5a835ee6a5" x="145.226786" y="177.773333" style="stroke: #000000; stroke-width: 0.8"/>
      </g>
     </g>
     <g id="text_2">
      <!-- 1 -->
      <g transform="translate(142.045536 192.371771) scale(0.1 -0.1)">
       <defs>
        <path id="DejaVuSans-31" d="M 794 531
L 1825 531
L 1825 4091
L 703 3866
L 703 4441
L 1819 4666
L 2450 4666
L 2450 531
L 3481 531
L 3481 0
L 794 0
L 794 531
z
" transform="scale(0.015625)"/>
       </defs>
       <use xlink:href="#DejaVuSans-31"/>
      </g>
     </g>
    </g>
    <g id="xtick_3">
     <g id="line2d_5">
      <path d="M 211.341106 177.773333
L 211.341106 34.56
" clip-path="url(#pdaf0172f99)" style="fill: none; stroke: #b0b0b0; stroke-opacity: 0.2; stroke-width: 0.8; stroke-linecap: square"/>
     </g>
     <g id="line2d_6">
      <g>
       <use xlink:href="#m5a835ee6a5" x="211.341106" y="177.773333" style="stroke: #000000; stroke-width: 0.8"/>
      </g>
     </g>
     <g id="text_3">
      <!-- 2 -->
      <g transform="translate(208.159856 192.371771) scale(0.1 -0.1)">
       <defs>
        <path id="DejaVuSans-32" d="M 1228 531
L 3431 531
L 3431 0
L 469 0
L 469 531
Q 828 903 1448 1529
Q 2069 2156 2228 2338
Q 2531 2678 2651 2914
Q 2772 3150 2772 3378
Q 2772 3750 2511 3984
Q 2250 4219 1831 4219
Q 1534 4219 1204 4116
Q 875 4013 500 3803
L 500 4441
Q 881 4594 1212 4672
Q 1544 4750 1819 4750
Q 2544 4750 2975 4387
Q 3406 4025 3406 3419
Q 3406 3131 3298 2873
Q 3191 2616 2906 2266
Q 2828 2175 2409 1742
Q 1991 1309 1228 531
z
" transform="scale(0.015625)"/>
       </defs>
       <use xlink:href="#DejaVuSans-32"/>
      </g>
     </g>
    </g>
    <g id="xtick_4">
     <g id="line2d_7">
      <path d="M 277.455426 177.773333
L 277.455426 34.56
" clip-path="url(#pdaf0172f99)" style="fill: none; stroke: #b0b0b0; stroke-opacity: 0.2; stroke-width: 0.8; stroke-linecap: square"/>
     </g>
     <g id="line2d_8">
      <g>
       <use xlink:href="#m5a835ee6a5" x="277.455426" y="177.773333" style="stroke: #000000; stroke-width: 0.8"/>
      </g>
     </g>
     <g id="text_4">
      <!-- 3 -->
      <g transform="translate(274.274176 192.371771) scale(0.1 -0.1)">
       <defs>
        <path id="DejaVuSans-33" d="M 2597 2516
Q 3050 2419 3304 2112
Q 3559 1806 3559 1356
Q 3559 666 3084 287
Q 2609 -91 1734 -91
Q 1441 -91 1130 -33
Q 819 25 488 141
L 488 750
Q 750 597 1062 519
Q 1375 441 1716 441
Q 2309 441 2620 675
Q 2931 909 2931 1356
Q 2931 1769 2642 2001
Q 2353 2234 1838 2234
L 1294 2234
L 1294 2753
L 1863 2753
Q 2328 2753 2575 2939
Q 2822 3125 2822 3475
Q 2822 3834 2567 4026
Q 2313 4219 1838 4219
Q 1578 4219 1281 4162
Q 984 4106 628 3988
L 628 4550
Q 988 4650 1302 4700
Q 1616 4750 1894 4750
Q 2613 4750 3031 4423
Q 3450 4097 3450 3541
Q 3450 3153 3228 2886
Q 3006 2619 2597 2516
z
" transform="scale(0.015625)"/>
       </defs>
       <use xlink:href="#DejaVuSans-33"/>
      </g>
     </g>
    </g>
    <g id="xtick_5">
     <g id="line2d_9">
      <path d="M 343.569746 177.773333
L 343.569746 34.56
" clip-path="url(#pdaf0172f99)" style="fill: none; stroke: #b0b0b0; stroke-opacity: 0.2; stroke-width: 0.8; stroke-linecap: square"/>
     </g>
     <g id="line2d_10">
      <g>
       <use xlink:href="#m5a835ee6a5" x="343.569746" y="177.773333" style="stroke: #000000; stroke-width: 0.8"/>
      </g>
     </g>
     <g id="text_5">
      <!-- 4 -->
      <g transform="translate(340.388496 192.371771) scale(0.1 -0.1)">
       <defs>
        <path id="DejaVuSans-34" d="M 2419 4116
L 825 1625
L 2419 1625
L 2419 4116
z
M 2253 4666
L 3047 4666
L 3047 1625
L 3713 1625
L 3713 1100
L 3047 1100
L 3047 0
L 2419 0
L 2419 1100
L 313 1100
L 313 1709
L 2253 4666
z
" transform="scale(0.015625)"/>
       </defs>
       <use xlink:href="#DejaVuSans-34"/>
      </g>
     </g>
    </g>
    <g id="xtick_6">
     <g id="line2d_11">
      <path d="M 409.684067 177.773333
L 409.684067 34.56
" clip-path="url(#pdaf0172f99)" style="fill: none; stroke: #b0b0b0; stroke-opacity: 0.2; stroke-width: 0.8; stroke-linecap: square"/>
     </g>
     <g id="line2d_12">
      <g>
       <use xlink:href="#m5a835ee6a5" x="409.684067" y="177.773333" style="stroke: #000000; stroke-width: 0.8"/>
      </g>
     </g>
     <g id="text_6">
      <!-- 5 -->
      <g transform="translate(406.502817 192.371771) scale(0.1 -0.1)">
       <defs>
        <path id="DejaVuSans-35" d="M 691 4666
L 3169 4666
L 3169 4134
L 1269 4134
L 1269 2991
Q 1406 3038 1543 3061
Q 1681 3084 1819 3084
Q 2600 3084 3056 2656
Q 3513 2228 3513 1497
Q 3513 744 3044 326
Q 2575 -91 1722 -91
Q 1428 -91 1123 -41
Q 819 9 494 109
L 494 744
Q 775 591 1075 516
Q 1375 441 1709 441
Q 2250 441 2565 725
Q 2881 1009 2881 1497
Q 2881 1984 2565 2268
Q 2250 2553 1709 2553
Q 1456 2553 1204 2497
Q 953 2441 691 2322
L 691 4666
z
" transform="scale(0.015625)"/>
       </defs>
       <use xlink:href="#DejaVuSans-35"/>
      </g>
     </g>
    </g>
    <g id="xtick_7">
     <g id="line2d_13">
      <path d="M 475.798387 177.773333
L 475.798387 34.56
" clip-path="url(#pdaf0172f99)" style="fill: none; stroke: #b0b0b0; stroke-opacity: 0.2; stroke-width: 0.8; stroke-linecap: square"/>
     </g>
     <g id="line2d_14">
      <g>
       <use xlink:href="#m5a835ee6a5" x="475.798387" y="177.773333" style="stroke: #000000; stroke-width: 0.8"/>
      </g>
     </g>
     <g id="text_7">
      <!-- 6 -->
      <g transform="translate(472.617137 192.371771) scale(0.1 -0.1)">
       <defs>
        <path id="DejaVuSans-36" d="M 2113 2584
Q 1688 2584 1439 2293
Q 1191 2003 1191 1497
Q 1191 994 1439 701
Q 1688 409 2113 409
Q 2538 409 2786 701
Q 3034 994 3034 1497
Q 3034 2003 2786 2293
Q 2538 2584 2113 2584
z
M 3366 4563
L 3366 3988
Q 3128 4100 2886 4159
Q 2644 4219 2406 4219
Q 1781 4219 1451 3797
Q 1122 3375 1075 2522
Q 1259 2794 1537 2939
Q 1816 3084 2150 3084
Q 2853 3084 3261 2657
Q 3669 2231 3669 1497
Q 3669 778 3244 343
Q 2819 -91 2113 -91
Q 1303 -91 875 529
Q 447 1150 447 2328
Q 447 3434 972 4092
Q 1497 4750 2381 4750
Q 2619 4750 2861 4703
Q 3103 4656 3366 4563
z
" transform="scale(0.015625)"/>
       </defs>
       <use xlink:href="#DejaVuSans-36"/>
      </g>
     </g>
    </g>
    <g id="xtick_8">
     <g id="line2d_15">
      <path d="M 541.912707 177.773333
L 541.912707 34.56
" clip-path="url(#pdaf0172f99)" style="fill: none; stroke: #b0b0b0; stroke-opacity: 0.2; stroke-width: 0.8; stroke-linecap: square"/>
     </g>
     <g id="line2d_16">
      <g>
       <use xlink:href="#m5a835ee6a5" x="541.912707" y="177.773333" style="stroke: #000000; stroke-width: 0.8"/>
      </g>
     </g>
     <g id="text_8">
      <!-- 7 -->
      <g transform="translate(538.731457 192.371771) scale(0.1 -0.1)">
       <defs>
        <path id="DejaVuSans-37" d="M 525 4666
L 3525 4666
L 3525 4397
L 1831 0
L 1172 0
L 2766 4134
L 525 4134
L 525 4666
z
" transform="scale(0.015625)"/>
       </defs>
       <use xlink:href="#DejaVuSans-37"/>
      </g>
     </g>
    </g>
    <g id="xtick_9">
     <g id="line2d_17">
      <path d="M 608.027027 177.773333
L 608.027027 34.56
" clip-path="url(#pdaf0172f99)" style="fill: none; stroke: #b0b0b0; stroke-opacity: 0.2; stroke-width: 0.8; stroke-linecap: square"/>
     </g>
     <g id="line2d_18">
      <g>
       <use xlink:href="#m5a835ee6a5" x="608.027027" y="177.773333" style="stroke: #000000; stroke-width: 0.8"/>
      </g>
     </g>
     <g id="text_9">
      <!-- 8 -->
      <g transform="translate(604.845777 192.371771) scale(0.1 -0.1)">
       <defs>
        <path id="DejaVuSans-38" d="M 2034 2216
Q 1584 2216 1326 1975
Q 1069 1734 1069 1313
Q 1069 891 1326 650
Q 1584 409 2034 409
Q 2484 409 2743 651
Q 3003 894 3003 1313
Q 3003 1734 2745 1975
Q 2488 2216 2034 2216
z
M 1403 2484
Q 997 2584 770 2862
Q 544 3141 544 3541
Q 544 4100 942 4425
Q 1341 4750 2034 4750
Q 2731 4750 3128 4425
Q 3525 4100 3525 3541
Q 3525 3141 3298 2862
Q 3072 2584 2669 2484
Q 3125 2378 3379 2068
Q 3634 1759 3634 1313
Q 3634 634 3220 271
Q 2806 -91 2034 -91
Q 1263 -91 848 271
Q 434 634 434 1313
Q 434 1759 690 2068
Q 947 2378 1403 2484
z
M 1172 3481
Q 1172 3119 1398 2916
Q 1625 2713 2034 2713
Q 2441 2713 2670 2916
Q 2900 3119 2900 3481
Q 2900 3844 2670 4047
Q 2441 4250 2034 4250
Q 1625 4250 1398 4047
Q 1172 3844 1172 3481
z
" transform="scale(0.015625)"/>
       </defs>
       <use xlink:href="#DejaVuSans-38"/>
      </g>
     </g>
    </g>
   </g>
   <g id="matplotlib.axis_2">
    <g id="ytick_1">
     <g id="line2d_19">
      <path d="M 56 176.831168
L 637.2 176.831168
" clip-path="url(#pdaf0172f99)" style="fill: none; stroke: #b0b0b0; stroke-opacity: 0.2; stroke-width: 0.8; stroke-linecap: square"/>
     </g>
     <g id="line2d_20">
      <defs>
       <path id="m83515139c9" d="M 0 0
L -3.5 0
" style="stroke: #000000; stroke-width: 0.8"/>
      </defs>
      <g>
       <use xlink:href="#m83515139c9" x="56" y="176.831168" style="stroke: #000000; stroke-width: 0.8"/>
      </g>
     </g>
     <g id="text_10">
      <!-- −0.5 -->
      <g transform="translate(24.717188 180.630387) scale(0.1 -0.1)">
       <defs>
        <path id="DejaVuSans-2212" d="M 678 2272
L 4684 2272
L 4684 1741
L 678 1741
L 678 2272
z
" transform="scale(0.015625)"/>
        <path id="DejaVuSans-2e" d="M 684 794
L 1344 794
L 1344 0
L 684 0
L 684 794
z
" transform="scale(0.015625)"/>
       </defs>
       <use xlink:href="#DejaVuSans-2212"/>
       <use xlink:href="#DejaVuSans-30" transform="translate(83.789062 0)"/>
       <use xlink:href="#DejaVuSans-2e" transform="translate(147.412109 0)"/>
       <use xlink:href="#DejaVuSans-35" transform="translate(179.199219 0)"/>
      </g>
     </g>
    </g>
    <g id="ytick_2">
     <g id="line2d_21">
      <path d="M 56 138.584068
L 637.2 138.584068
" clip-path="url(#pdaf0172f99)" style="fill: none; stroke: #b0b0b0; stroke-opacity: 0.2; stroke-width: 0.8; stroke-linecap: square"/>
     </g>
     <g id="line2d_22">
      <g>
       <use xlink:href="#m83515139c9" x="56" y="138.584068" style="stroke: #000000; stroke-width: 0.8"/>
      </g>
     </g>
     <g id="text_11">
      <!-- 0.0 -->
      <g transform="translate(33.096875 142.383287) scale(0.1 -0.1)">
       <use xlink:href="#DejaVuSans-30"/>
       <use xlink:href="#DejaVuSans-2e" transform="translate(63.623047 0)"/>
       <use xlink:href="#DejaVuSans-30" transform="translate(95.410156 0)"/>
      </g>
     </g>
    </g>
    <g id="ytick_3">
     <g id="line2d_23">
      <path d="M 56 100.336969
L 637.2 100.336969
" clip-path="url(#pdaf0172f99)" style="fill: none; stroke: #b0b0b0; stroke-opacity: 0.2; stroke-width: 0.8; stroke-linecap: square"/>
     </g>
     <g id="line2d_24">
      <g>
       <use xlink:href="#m83515139c9" x="56" y="100.336969" style="stroke: #000000; stroke-width: 0.8"/>
      </g>
     </g>
     <g id="text_12">
      <!-- 0.5 -->
      <g transform="translate(33.096875 104.136188) scale(0.1 -0.1)">
       <use xlink:href="#DejaVuSans-30"/>
       <use xlink:href="#DejaVuSans-2e" transform="translate(63.623047 0)"/>
       <use xlink:href="#DejaVuSans-35" transform="translate(95.410156 0)"/>
      </g>
     </g>
    </g>
    <g id="ytick_4">
     <g id="line2d_25">
      <path d="M 56 62.08987
L 637.2 62.08987
" clip-path="url(#pdaf0172f99)" style="fill: none; stroke: #b0b0b0; stroke-opacity: 0.2; stroke-width: 0.8; stroke-linecap: square"/>
     </g>
     <g id="line2d_26">
      <g>
       <use xlink:href="#m83515139c9" x="56" y="62.08987" style="stroke: #000000; stroke-width: 0.8"/>
      </g>
     </g>
     <g id="text_13">
      <!-- 1.0 -->
      <g transform="translate(33.096875 65.889089) scale(0.1 -0.1)">
       <use xlink:href="#DejaVuSans-31"/>
       <use xlink:href="#DejaVuSans-2e" transform="translate(63.623047 0)"/>
       <use xlink:href="#DejaVuSans-30" transform="translate(95.410156 0)"/>
      </g>
     </g>
    </g>
    <g id="text_14">
     <!-- Minimum all9021 gap (mm) -->
     <g transform="translate(18.6375 175.726042) rotate(-90) scale(0.1 -0.1)">
      <defs>
       <path id="DejaVuSans-4d" d="M 628 4666
L 1569 4666
L 2759 1491
L 3956 4666
L 4897 4666
L 4897 0
L 4281 0
L 4281 4097
L 3078 897
L 2444 897
L 1241 4097
L 1241 0
L 628 0
L 628 4666
z
" transform="scale(0.015625)"/>
       <path id="DejaVuSans-69" d="M 603 3500
L 1178 3500
L 1178 0
L 603 0
L 603 3500
z
M 603 4863
L 1178 4863
L 1178 4134
L 603 4134
L 603 4863
z
" transform="scale(0.015625)"/>
       <path id="DejaVuSans-6e" d="M 3513 2113
L 3513 0
L 2938 0
L 2938 2094
Q 2938 2591 2744 2837
Q 2550 3084 2163 3084
Q 1697 3084 1428 2787
Q 1159 2491 1159 1978
L 1159 0
L 581 0
L 581 3500
L 1159 3500
L 1159 2956
Q 1366 3272 1645 3428
Q 1925 3584 2291 3584
Q 2894 3584 3203 3211
Q 3513 2838 3513 2113
z
" transform="scale(0.015625)"/>
       <path id="DejaVuSans-6d" d="M 3328 2828
Q 3544 3216 3844 3400
Q 4144 3584 4550 3584
Q 5097 3584 5394 3201
Q 5691 2819 5691 2113
L 5691 0
L 5113 0
L 5113 2094
Q 5113 2597 4934 2840
Q 4756 3084 4391 3084
Q 3944 3084 3684 2787
Q 3425 2491 3425 1978
L 3425 0
L 2847 0
L 2847 2094
Q 2847 2600 2669 2842
Q 2491 3084 2119 3084
Q 1678 3084 1418 2786
Q 1159 2488 1159 1978
L 1159 0
L 581 0
L 581 3500
L 1159 3500
L 1159 2956
Q 1356 3278 1631 3431
Q 1906 3584 2284 3584
Q 2666 3584 2933 3390
Q 3200 3197 3328 2828
z
" transform="scale(0.015625)"/>
       <path id="DejaVuSans-75" d="M 544 1381
L 544 3500
L 1119 3500
L 1119 1403
Q 1119 906 1312 657
Q 1506 409 1894 409
Q 2359 409 2629 706
Q 2900 1003 2900 1516
L 2900 3500
L 3475 3500
L 3475 0
L 2900 0
L 2900 538
Q 2691 219 2414 64
Q 2138 -91 1772 -91
Q 1169 -91 856 284
Q 544 659 544 1381
z
M 1991 3584
L 1991 3584
z
" transform="scale(0.015625)"/>
       <path id="DejaVuSans-20" transform="scale(0.015625)"/>
       <path id="DejaVuSans-61" d="M 2194 1759
Q 1497 1759 1228 1600
Q 959 1441 959 1056
Q 959 750 1161 570
Q 1363 391 1709 391
Q 2188 391 2477 730
Q 2766 1069 2766 1631
L 2766 1759
L 2194 1759
z
M 3341 1997
L 3341 0
L 2766 0
L 2766 531
Q 2569 213 2275 61
Q 1981 -91 1556 -91
Q 1019 -91 701 211
Q 384 513 384 1019
Q 384 1609 779 1909
Q 1175 2209 1959 2209
L 2766 2209
L 2766 2266
Q 2766 2663 2505 2880
Q 2244 3097 1772 3097
Q 1472 3097 1187 3025
Q 903 2953 641 2809
L 641 3341
Q 956 3463 1253 3523
Q 1550 3584 1831 3584
Q 2591 3584 2966 3190
Q 3341 2797 3341 1997
z
" transform="scale(0.015625)"/>
       <path id="DejaVuSans-6c" d="M 603 4863
L 1178 4863
L 1178 0
L 603 0
L 603 4863
z
" transform="scale(0.015625)"/>
       <path id="DejaVuSans-39" d="M 703 97
L 703 672
Q 941 559 1184 500
Q 1428 441 1663 441
Q 2288 441 2617 861
Q 2947 1281 2994 2138
Q 2813 1869 2534 1725
Q 2256 1581 1919 1581
Q 1219 1581 811 2004
Q 403 2428 403 3163
Q 403 3881 828 4315
Q 1253 4750 1959 4750
Q 2769 4750 3195 4129
Q 3622 3509 3622 2328
Q 3622 1225 3098 567
Q 2575 -91 1691 -91
Q 1453 -91 1209 -44
Q 966 3 703 97
z
M 1959 2075
Q 2384 2075 2632 2365
Q 2881 2656 2881 3163
Q 2881 3666 2632 3958
Q 2384 4250 1959 4250
Q 1534 4250 1286 3958
Q 1038 3666 1038 3163
Q 1038 2656 1286 2365
Q 1534 2075 1959 2075
z
" transform="scale(0.015625)"/>
       <path id="DejaVuSans-67" d="M 2906 1791
Q 2906 2416 2648 2759
Q 2391 3103 1925 3103
Q 1463 3103 1205 2759
Q 947 2416 947 1791
Q 947 1169 1205 825
Q 1463 481 1925 481
Q 2391 481 2648 825
Q 2906 1169 2906 1791
z
M 3481 434
Q 3481 -459 3084 -895
Q 2688 -1331 1869 -1331
Q 1566 -1331 1297 -1286
Q 1028 -1241 775 -1147
L 775 -588
Q 1028 -725 1275 -790
Q 1522 -856 1778 -856
Q 2344 -856 2625 -561
Q 2906 -266 2906 331
L 2906 616
Q 2728 306 2450 153
Q 2172 0 1784 0
Q 1141 0 747 490
Q 353 981 353 1791
Q 353 2603 747 3093
Q 1141 3584 1784 3584
Q 2172 3584 2450 3431
Q 2728 3278 2906 2969
L 2906 3500
L 3481 3500
L 3481 434
z
" transform="scale(0.015625)"/>
       <path id="DejaVuSans-70" d="M 1159 525
L 1159 -1331
L 581 -1331
L 581 3500
L 1159 3500
L 1159 2969
Q 1341 3281 1617 3432
Q 1894 3584 2278 3584
Q 2916 3584 3314 3078
Q 3713 2572 3713 1747
Q 3713 922 3314 415
Q 2916 -91 2278 -91
Q 1894 -91 1617 61
Q 1341 213 1159 525
z
M 3116 1747
Q 3116 2381 2855 2742
Q 2594 3103 2138 3103
Q 1681 3103 1420 2742
Q 1159 2381 1159 1747
Q 1159 1113 1420 752
Q 1681 391 2138 391
Q 2594 391 2855 752
Q 3116 1113 3116 1747
z
" transform="scale(0.015625)"/>
       <path id="DejaVuSans-28" d="M 1984 4856
Q 1566 4138 1362 3434
Q 1159 2731 1159 2009
Q 1159 1288 1364 580
Q 1569 -128 1984 -844
L 1484 -844
Q 1016 -109 783 600
Q 550 1309 550 2009
Q 550 2706 781 3412
Q 1013 4119 1484 4856
L 1984 4856
z
" transform="scale(0.015625)"/>
       <path id="DejaVuSans-29" d="M 513 4856
L 1013 4856
Q 1481 4119 1714 3412
Q 1947 2706 1947 2009
Q 1947 1309 1714 600
Q 1481 -109 1013 -844
L 513 -844
Q 928 -128 1133 580
Q 1338 1288 1338 2009
Q 1338 2731 1133 3434
Q 928 4138 513 4856
z
" transform="scale(0.015625)"/>
      </defs>
      <use xlink:href="#DejaVuSans-4d"/>
      <use xlink:href="#DejaVuSans-69" transform="translate(86.279297 0)"/>
      <use xlink:href="#DejaVuSans-6e" transform="translate(114.0625 0)"/>
      <use xlink:href="#DejaVuSans-69" transform="translate(177.441406 0)"/>
      <use xlink:href="#DejaVuSans-6d" transform="translate(205.224609 0)"/>
      <use xlink:href="#DejaVuSans-75" transform="translate(302.636719 0)"/>
      <use xlink:href="#DejaVuSans-6d" transform="translate(366.015625 0)"/>
      <use xlink:href="#DejaVuSans-20" transform="translate(463.427734 0)"/>
      <use xlink:href="#DejaVuSans-61" transform="translate(495.214844 0)"/>
      <use xlink:href="#DejaVuSans-6c" transform="translate(556.494141 0)"/>
      <use xlink:href="#DejaVuSans-6c" transform="translate(584.277344 0)"/>
      <use xlink:href="#DejaVuSans-39" transform="translate(612.060547 0)"/>
      <use xlink:href="#DejaVuSans-30" transform="translate(675.683594 0)"/>
      <use xlink:href="#DejaVuSans-32" transform="translate(739.306641 0)"/>
      <use xlink:href="#DejaVuSans-31" transform="translate(802.929688 0)"/>
      <use xlink:href="#DejaVuSans-20" transform="translate(866.552734 0)"/>
      <use xlink:href="#DejaVuSans-67" transform="translate(898.339844 0)"/>
      <use xlink:href="#DejaVuSans-61" transform="translate(961.816406 0)"/>
      <use xlink:href="#DejaVuSans-70" transform="translate(1023.095703 0)"/>
      <use xlink:href="#DejaVuSans-20" transform="translate(1086.572266 0)"/>
      <use xlink:href="#DejaVuSans-28" transform="translate(1118.359375 0)"/>
      <use xlink:href="#DejaVuSans-6d" transform="translate(1157.373047 0)"/>
      <use xlink:href="#DejaVuSans-6d" transform="translate(1254.785156 0)"/>
      <use xlink:href="#DejaVuSans-29" transform="translate(1352.197266 0)"/>
     </g>
    </g>
   </g>
   <g id="line2d_27">
    <path d="M 82.418182 41.516519
L 82.969135 41.379737
L 84.07104 41.466366
L 85.172945 41.808321
L 90.13152 43.814462
L 91.784378 44.074348
L 93.988188 44.156417
L 100.048668 44.074348
L 108.863911 45.095656
L 112.169627 45.642785
L 114.924391 45.893552
L 117.128202 45.888993
L 124.841539 46.322137
L 126.494398 45.875315
L 130.902019 44.502932
L 132.554877 44.202011
L 133.656783 44.334234
L 140.819168 46.13976
L 142.472026 46.468038
L 145.777742 47.202103
L 148.532505 47.571415
L 151.838222 47.740113
L 154.592985 47.585093
L 160.653465 47.024286
L 165.061086 46.13976
L 167.264897 45.879874
L 168.366803 45.697498
L 171.672519 44.489254
L 173.87633 43.960363
L 176.08014 43.636645
L 177.182046 43.554575
L 178.834904 43.741511
L 185.997289 45.081977
L 187.099194 45.100215
L 188.2011 44.854007
L 193.710627 43.048481
L 195.914437 42.524149
L 198.118248 42.031732
L 200.873012 41.657861
L 203.076822 41.525638
L 204.178728 41.708014
L 205.831586 42.451198
L 209.137302 44.188333
L 210.79016 44.812972
L 211.892066 45.109334
L 221.809214 45.866196
L 222.91112 45.692938
L 224.563978 45.104774
L 227.869694 43.887412
L 229.522552 43.504422
L 230.624457 43.445149
L 231.726363 43.691357
L 233.379221 44.375269
L 236.133984 45.592631
L 237.786842 46.116963
L 238.337795 46.258305
L 238.888748 46.22183
L 239.990653 45.75677
L 241.643511 44.667071
L 243.847322 43.176144
L 245.50018 42.291619
L 247.153038 41.676098
L 248.805896 41.388856
L 251.56066 41.133529
L 255.968281 41.087935
L 256.519234 41.151766
L 257.621139 41.58947
L 259.273998 42.683728
L 261.477808 44.224808
L 263.130666 45.127571
L 266.987335 46.677771
L 268.640193 47.170187
L 270.844004 47.553177
L 273.598768 47.76291
L 274.700673 47.544059
L 278.006389 46.768959
L 280.761153 46.358612
L 282.964964 46.057691
L 284.066869 45.492324
L 289.025443 42.264262
L 290.127349 41.812881
L 290.678301 41.680658
L 291.229254 41.858475
L 292.331159 41.698895
L 294.53497 42.774916
L 297.289734 44.069788
L 299.493544 44.799294
L 306.104977 46.340374
L 308.85974 46.645855
L 309.961646 46.363171
L 313.267362 45.200522
L 313.818315 45.040943
L 314.369267 63.181693
L 315.471173 108.68802
L 316.573078 143.894641
L 317.674983 171.263636
L 318.225936 70.815285
L 318.776889 44.147298
L 320.9807 44.069788
L 327.592132 44.051551
L 330.346895 43.312926
L 333.101659 42.642693
L 335.30547 42.314416
L 335.856422 42.36001
L 336.958328 42.774916
L 338.611186 43.75063
L 341.365949 45.36922
L 343.018807 46.06681
L 345.222618 46.650414
L 346.324524 46.623058
L 347.977382 46.230949
L 352.385003 45.027264
L 353.486909 44.876804
L 354.588814 44.936076
L 356.241672 45.37378
L 360.649294 46.782637
L 361.751199 47.006048
L 362.853105 46.969573
L 364.505963 46.645855
L 368.913584 45.624547
L 371.117395 45.337304
L 372.770253 45.022705
L 377.728827 43.677679
L 379.381685 43.44059
L 379.932638 43.481625
L 381.034544 43.860056
L 383.789307 45.227878
L 385.993118 46.203592
L 387.645976 46.714246
L 388.196929 46.846469
L 388.747881 46.819112
L 389.849787 46.413325
L 392.053597 45.173166
L 394.257408 43.996838
L 395.910266 43.335724
L 397.012172 43.012005
L 397.563124 43.062159
L 398.66503 43.577372
L 404.174557 46.928538
L 405.827415 47.53038
L 406.92932 47.699078
L 408.582178 47.680841
L 411.887895 47.30241
L 415.193611 46.987811
L 416.846469 47.047083
L 423.457901 47.899692
L 424.559807 47.598771
L 430.069334 45.29171
L 432.273144 44.781056
L 432.824097 44.858566
L 435.027908 45.724854
L 437.782671 46.746162
L 439.986482 47.316088
L 441.088388 47.516702
L 442.190293 47.370801
L 449.352678 45.419374
L 451.556489 45.2142
L 458.718874 44.90416
L 459.820779 45.072859
L 461.473637 45.715735
L 464.779353 47.151949
L 466.432212 47.662603
L 467.534117 47.908811
L 468.08507 47.817623
L 469.186975 47.124593
L 471.390786 45.164047
L 473.043644 43.773427
L 474.696502 42.674609
L 476.34936 41.917747
L 477.451266 41.81744
L 479.104124 41.995257
L 486.266509 43.112312
L 487.919367 43.112312
L 491.225083 42.797713
L 495.632705 42.446639
L 497.836515 42.583421
L 503.346042 43.098634
L 504.447948 43.472506
L 506.100806 44.448219
L 508.855569 46.121523
L 510.508427 46.832791
L 512.712238 47.466549
L 514.365096 47.740113
L 516.568907 47.858658
L 519.874623 47.817623
L 521.527481 47.730994
L 522.629387 47.45743
L 528.689866 45.496884
L 530.893677 45.21876
L 535.301299 45.018146
L 538.607015 44.936076
L 540.259873 44.320556
L 543.565589 42.961852
L 545.7694 42.341772
L 547.422258 42.081886
L 556.237501 41.416212
L 557.339407 41.498281
L 558.992265 41.954222
L 562.848934 43.203501
L 566.15465 44.069788
L 570.011319 45.569834
L 572.215129 46.098726
L 573.867987 46.271983
L 574.969893 45.961943
L 576.622751 45.045502
L 579.377514 43.408674
L 581.030373 42.688287
L 583.234183 41.986138
L 584.336089 41.803762
L 585.988947 41.835678
L 590.947521 42.405604
L 591.498474 42.629015
L 594.80419 44.648833
L 596.457048 45.392017
L 598.109906 45.925468
L 599.762764 46.285661
L 601.415622 46.335815
L 603.619433 46.130642
L 608.027055 45.629107
L 610.781818 45.433052
L 610.781818 45.433052
" clip-path="url(#pdaf0172f99)" style="fill: none; stroke: #68788b; stroke-width: 1.5; stroke-linecap: square"/>
   </g>
   <g id="line2d_28">
    <path d="M 82.418182 41.516519
L 82.969135 41.379737
L 84.07104 41.466366
L 85.172945 41.808321
L 90.682472 44.042432
L 92.886283 44.498373
L 95.090094 44.708106
L 98.39581 44.7537
L 105.558195 44.799294
L 107.211053 44.899601
L 114.924391 45.948265
L 118.78106 46.057691
L 123.739634 46.472597
L 124.841539 46.440681
L 125.943445 46.226389
L 128.147256 45.492324
L 130.351066 44.771938
L 132.003925 44.379828
L 133.10583 44.270402
L 134.758688 44.429982
L 143.022978 45.765889
L 146.328695 46.828231
L 148.532505 47.29785
L 150.736316 47.585093
L 154.042032 47.772029
L 160.653465 47.785707
L 162.306323 47.480227
L 167.264897 46.230949
L 169.468708 45.902671
L 172.223471 45.711176
L 176.631093 45.478646
L 178.283951 45.195963
L 179.936809 45.186844
L 183.793478 45.332745
L 187.650147 45.195963
L 190.40491 45.113893
L 192.057769 44.744581
L 197.567295 43.230857
L 199.771106 42.966411
L 201.423964 42.916258
L 205.280633 43.358521
L 210.79016 45.045502
L 212.993971 45.378339
L 215.748734 45.528799
L 219.054451 45.474087
L 220.707309 45.515121
L 222.360167 45.583512
L 224.013025 45.392017
L 226.216836 44.767378
L 228.971599 43.964922
L 230.624457 43.686798
L 231.726363 43.741511
L 232.828268 44.033313
L 235.032079 44.931517
L 237.23589 45.784126
L 238.888748 46.203592
L 240.541606 46.276543
L 242.745417 46.098726
L 250.458754 45.182284
L 251.56066 44.74914
L 253.764471 43.540897
L 255.968281 42.43752
L 257.070187 42.04997
L 258.172092 41.922307
L 259.273998 42.154836
L 260.375903 42.67005
L 265.334477 45.382898
L 267.538288 46.417884
L 269.191146 46.951335
L 271.394957 47.370801
L 273.598768 47.680841
L 274.700673 47.617009
L 276.904484 47.060761
L 279.659247 46.486276
L 281.312105 46.317577
L 285.168774 46.039453
L 286.27068 46.21727
L 290.127349 47.129152
L 291.780207 47.097236
L 293.984017 46.800875
L 300.044497 45.656463
L 301.697355 45.683819
L 303.350213 45.975622
L 305.554024 46.436122
L 307.757835 46.691449
L 309.410693 46.718805
L 310.512598 46.490835
L 315.471173 44.794735
L 317.124031 44.489254
L 318.776889 44.553086
L 326.490227 45.232438
L 327.592132 45.036383
L 329.24499 44.452779
L 331.999754 43.449709
L 334.203564 42.911698
L 335.856422 42.811391
L 336.958328 42.939055
L 338.060233 43.276451
L 339.713091 44.124501
L 343.018807 45.993859
L 344.671666 46.636736
L 345.773571 46.841909
L 346.875476 46.796315
L 348.528334 46.395087
L 352.935956 45.081977
L 355.139767 44.744581
L 357.89453 44.607799
L 360.098341 44.626036
L 361.200246 44.785616
L 363.404057 45.341864
L 365.607868 45.692938
L 369.464537 45.998419
L 371.117395 45.893552
L 377.177875 45.13669
L 380.483591 44.402625
L 381.585496 44.457338
L 382.687402 44.740022
L 384.891212 45.692938
L 387.095023 46.641295
L 389.298834 47.348004
L 390.951692 47.694519
L 393.706456 47.977202
L 397.563124 48.041034
L 406.92932 47.990881
L 411.336942 47.361682
L 413.540753 47.45287
L 419.601232 48.109425
L 422.355996 48.332836
L 425.661712 48.433143
L 430.620286 48.364752
L 431.722192 48.100306
L 433.37505 47.603331
L 434.476955 47.544059
L 436.680766 47.753791
L 438.333624 48.027356
L 443.292198 49.427095
L 445.496009 49.791847
L 446.597914 49.759932
L 447.69982 49.477248
L 449.352678 48.665673
L 453.209347 46.53187
L 455.413158 45.702057
L 457.616968 45.205081
L 459.820779 44.98623
L 462.575543 44.926957
L 466.983164 45.009027
L 468.636022 45.145809
L 469.737928 45.068299
L 470.839833 44.808413
L 472.492691 44.124501
L 475.247455 42.852426
L 476.34936 42.460317
L 477.451266 42.291619
L 479.104124 42.318975
L 482.960792 42.802273
L 486.817461 43.472506
L 489.572225 43.98316
L 492.326988 44.279521
L 493.979846 44.2932
L 499.489373 43.481625
L 502.79509 43.559135
L 508.304617 43.759749
L 509.406522 43.9786
L 510.508427 44.375269
L 512.161285 45.268913
L 515.467002 47.133712
L 517.11986 47.790267
L 518.772718 48.141341
L 520.976529 48.296361
L 524.833197 48.22797
L 531.995583 47.954405
L 533.648441 47.425514
L 536.954157 46.185354
L 543.565589 44.279521
L 545.218447 43.864615
L 549.075116 42.701966
L 551.278927 42.309856
L 552.931785 42.291619
L 555.135596 42.173074
L 561.196075 41.612267
L 565.052744 41.498281
L 567.256555 41.58947
L 568.358461 41.917747
L 569.460366 42.51047
L 574.41894 45.957384
L 575.520846 46.303899
L 576.622751 46.303899
L 577.724656 46.057691
L 579.377514 45.419374
L 583.785136 43.144228
L 585.437994 42.597099
L 586.5399 42.419282
L 587.641805 42.401045
L 588.74371 42.610777
L 589.845616 43.002887
L 591.498474 43.869174
L 593.702285 45.077418
L 595.355143 45.747651
L 597.008001 46.203592
L 599.211812 46.540988
L 601.966575 46.691449
L 610.781818 46.91486
L 610.781818 46.91486
" clip-path="url(#pdaf0172f99)" style="fill: none; stroke: #18775b; stroke-width: 1.5; stroke-linecap: square"/>
   </g>
   <g id="line2d_29">
    <path d="M 56 138.584068
L 637.2 138.584068
" clip-path="url(#pdaf0172f99)" style="fill: none; stroke-dasharray: 5.55,2.4; stroke-dashoffset: 0; stroke: #a62431; stroke-width: 1.5"/>
   </g>
   <g id="patch_3">
    <path d="M 56 177.773333
L 56 34.56
" style="fill: none; stroke: #000000; stroke-width: 0.8; stroke-linejoin: miter; stroke-linecap: square"/>
   </g>
   <g id="patch_4">
    <path d="M 637.2 177.773333
L 637.2 34.56
" style="fill: none; stroke: #000000; stroke-width: 0.8; stroke-linejoin: miter; stroke-linecap: square"/>
   </g>
   <g id="patch_5">
    <path d="M 56 177.773333
L 637.2 177.773333
" style="fill: none; stroke: #000000; stroke-width: 0.8; stroke-linejoin: miter; stroke-linecap: square"/>
   </g>
   <g id="patch_6">
    <path d="M 56 34.56
L 637.2 34.56
" style="fill: none; stroke: #000000; stroke-width: 0.8; stroke-linejoin: miter; stroke-linecap: square"/>
   </g>
   <g id="legend_1">
    <g id="patch_7">
     <path d="M 62.3 173.273333
L 137.1125 173.273333
Q 138.9125 173.273333 138.9125 171.473333
L 138.9125 145.952708
Q 138.9125 144.152708 137.1125 144.152708
L 62.3 144.152708
Q 60.5 144.152708 60.5 145.952708
L 60.5 171.473333
Q 60.5 173.273333 62.3 173.273333
z
" style="fill: #ffffff; opacity: 0.8; stroke: #cccccc; stroke-linejoin: miter"/>
    </g>
    <g id="line2d_30">
     <path d="M 64.1 151.441302
L 73.1 151.441302
L 82.1 151.441302
" style="fill: none; stroke: #68788b; stroke-width: 1.5; stroke-linecap: square"/>
    </g>
    <g id="text_15">
     <!-- Raw -->
     <g transform="translate(89.3 154.591302) scale(0.09 -0.09)">
      <defs>
       <path id="DejaVuSans-52" d="M 2841 2188
Q 3044 2119 3236 1894
Q 3428 1669 3622 1275
L 4263 0
L 3584 0
L 2988 1197
Q 2756 1666 2539 1819
Q 2322 1972 1947 1972
L 1259 1972
L 1259 0
L 628 0
L 628 4666
L 2053 4666
Q 2853 4666 3247 4331
Q 3641 3997 3641 3322
Q 3641 2881 3436 2590
Q 3231 2300 2841 2188
z
M 1259 4147
L 1259 2491
L 2053 2491
Q 2509 2491 2742 2702
Q 2975 2913 2975 3322
Q 2975 3731 2742 3939
Q 2509 4147 2053 4147
L 1259 4147
z
" transform="scale(0.015625)"/>
       <path id="DejaVuSans-77" d="M 269 3500
L 844 3500
L 1563 769
L 2278 3500
L 2956 3500
L 3675 769
L 4391 3500
L 4966 3500
L 4050 0
L 3372 0
L 2619 2869
L 1863 0
L 1184 0
L 269 3500
z
" transform="scale(0.015625)"/>
      </defs>
      <use xlink:href="#DejaVuSans-52"/>
      <use xlink:href="#DejaVuSans-61" transform="translate(67.232422 0)"/>
      <use xlink:href="#DejaVuSans-77" transform="translate(128.511719 0)"/>
     </g>
    </g>
    <g id="line2d_31">
     <path d="M 64.1 164.651615
L 73.1 164.651615
L 82.1 164.651615
" style="fill: none; stroke: #18775b; stroke-width: 1.5; stroke-linecap: square"/>
    </g>
    <g id="text_16">
     <!-- Candidate -->
     <g transform="translate(89.3 167.801615) scale(0.09 -0.09)">
      <defs>
       <path id="DejaVuSans-43" d="M 4122 4306
L 4122 3641
Q 3803 3938 3442 4084
Q 3081 4231 2675 4231
Q 1875 4231 1450 3742
Q 1025 3253 1025 2328
Q 1025 1406 1450 917
Q 1875 428 2675 428
Q 3081 428 3442 575
Q 3803 722 4122 1019
L 4122 359
Q 3791 134 3420 21
Q 3050 -91 2638 -91
Q 1578 -91 968 557
Q 359 1206 359 2328
Q 359 3453 968 4101
Q 1578 4750 2638 4750
Q 3056 4750 3426 4639
Q 3797 4528 4122 4306
z
" transform="scale(0.015625)"/>
       <path id="DejaVuSans-64" d="M 2906 2969
L 2906 4863
L 3481 4863
L 3481 0
L 2906 0
L 2906 525
Q 2725 213 2448 61
Q 2172 -91 1784 -91
Q 1150 -91 751 415
Q 353 922 353 1747
Q 353 2572 751 3078
Q 1150 3584 1784 3584
Q 2172 3584 2448 3432
Q 2725 3281 2906 2969
z
M 947 1747
Q 947 1113 1208 752
Q 1469 391 1925 391
Q 2381 391 2643 752
Q 2906 1113 2906 1747
Q 2906 2381 2643 2742
Q 2381 3103 1925 3103
Q 1469 3103 1208 2742
Q 947 2381 947 1747
z
" transform="scale(0.015625)"/>
       <path id="DejaVuSans-74" d="M 1172 4494
L 1172 3500
L 2356 3500
L 2356 3053
L 1172 3053
L 1172 1153
Q 1172 725 1289 603
Q 1406 481 1766 481
L 2356 481
L 2356 0
L 1766 0
Q 1100 0 847 248
Q 594 497 594 1153
L 594 3053
L 172 3053
L 172 3500
L 594 3500
L 594 4494
L 1172 4494
z
" transform="scale(0.015625)"/>
       <path id="DejaVuSans-65" d="M 3597 1894
L 3597 1613
L 953 1613
Q 991 1019 1311 708
Q 1631 397 2203 397
Q 2534 397 2845 478
Q 3156 559 3463 722
L 3463 178
Q 3153 47 2828 -22
Q 2503 -91 2169 -91
Q 1331 -91 842 396
Q 353 884 353 1716
Q 353 2575 817 3079
Q 1281 3584 2069 3584
Q 2775 3584 3186 3129
Q 3597 2675 3597 1894
z
M 3022 2063
Q 3016 2534 2758 2815
Q 2500 3097 2075 3097
Q 1594 3097 1305 2825
Q 1016 2553 972 2059
L 3022 2063
z
" transform="scale(0.015625)"/>
      </defs>
      <use xlink:href="#DejaVuSans-43"/>
      <use xlink:href="#DejaVuSans-61" transform="translate(69.824219 0)"/>
      <use xlink:href="#DejaVuSans-6e" transform="translate(131.103516 0)"/>
      <use xlink:href="#DejaVuSans-64" transform="translate(194.482422 0)"/>
      <use xlink:href="#DejaVuSans-69" transform="translate(257.958984 0)"/>
      <use xlink:href="#DejaVuSans-64" transform="translate(285.742188 0)"/>
      <use xlink:href="#DejaVuSans-61" transform="translate(349.21875 0)"/>
      <use xlink:href="#DejaVuSans-74" transform="translate(410.498047 0)"/>
      <use xlink:href="#DejaVuSans-65" transform="translate(449.707031 0)"/>
     </g>
    </g>
   </g>
  </g>
  <g id="axes_2">
   <g id="patch_8">
    <path d="M 56 362.946667
L 637.2 362.946667
L 637.2 219.733333
L 56 219.733333
z
" style="fill: #ffffff"/>
   </g>
   <g id="matplotlib.axis_3">
    <g id="xtick_10">
     <g id="line2d_32">
      <path d="M 79.112466 362.946667
L 79.112466 219.733333
" clip-path="url(#pa23f3b0f28)" style="fill: none; stroke: #b0b0b0; stroke-opacity: 0.2; stroke-width: 0.8; stroke-linecap: square"/>
     </g>
     <g id="line2d_33">
      <g>
       <use xlink:href="#m5a835ee6a5" x="79.112466" y="362.946667" style="stroke: #000000; stroke-width: 0.8"/>
      </g>
     </g>
     <g id="text_17">
      <!-- 0 -->
      <g transform="translate(75.931216 377.545104) scale(0.1 -0.1)">
       <use xlink:href="#DejaVuSans-30"/>
      </g>
     </g>
    </g>
    <g id="xtick_11">
     <g id="line2d_34">
      <path d="M 145.226786 362.946667
L 145.226786 219.733333
" clip-path="url(#pa23f3b0f28)" style="fill: none; stroke: #b0b0b0; stroke-opacity: 0.2; stroke-width: 0.8; stroke-linecap: square"/>
     </g>
     <g id="line2d_35">
      <g>
       <use xlink:href="#m5a835ee6a5" x="145.226786" y="362.946667" style="stroke: #000000; stroke-width: 0.8"/>
      </g>
     </g>
     <g id="text_18">
      <!-- 1 -->
      <g transform="translate(142.045536 377.545104) scale(0.1 -0.1)">
       <use xlink:href="#DejaVuSans-31"/>
      </g>
     </g>
    </g>
    <g id="xtick_12">
     <g id="line2d_36">
      <path d="M 211.341106 362.946667
L 211.341106 219.733333
" clip-path="url(#pa23f3b0f28)" style="fill: none; stroke: #b0b0b0; stroke-opacity: 0.2; stroke-width: 0.8; stroke-linecap: square"/>
     </g>
     <g id="line2d_37">
      <g>
       <use xlink:href="#m5a835ee6a5" x="211.341106" y="362.946667" style="stroke: #000000; stroke-width: 0.8"/>
      </g>
     </g>
     <g id="text_19">
      <!-- 2 -->
      <g transform="translate(208.159856 377.545104) scale(0.1 -0.1)">
       <use xlink:href="#DejaVuSans-32"/>
      </g>
     </g>
    </g>
    <g id="xtick_13">
     <g id="line2d_38">
      <path d="M 277.455426 362.946667
L 277.455426 219.733333
" clip-path="url(#pa23f3b0f28)" style="fill: none; stroke: #b0b0b0; stroke-opacity: 0.2; stroke-width: 0.8; stroke-linecap: square"/>
     </g>
     <g id="line2d_39">
      <g>
       <use xlink:href="#m5a835ee6a5" x="277.455426" y="362.946667" style="stroke: #000000; stroke-width: 0.8"/>
      </g>
     </g>
     <g id="text_20">
      <!-- 3 -->
      <g transform="translate(274.274176 377.545104) scale(0.1 -0.1)">
       <use xlink:href="#DejaVuSans-33"/>
      </g>
     </g>
    </g>
    <g id="xtick_14">
     <g id="line2d_40">
      <path d="M 343.569746 362.946667
L 343.569746 219.733333
" clip-path="url(#pa23f3b0f28)" style="fill: none; stroke: #b0b0b0; stroke-opacity: 0.2; stroke-width: 0.8; stroke-linecap: square"/>
     </g>
     <g id="line2d_41">
      <g>
       <use xlink:href="#m5a835ee6a5" x="343.569746" y="362.946667" style="stroke: #000000; stroke-width: 0.8"/>
      </g>
     </g>
     <g id="text_21">
      <!-- 4 -->
      <g transform="translate(340.388496 377.545104) scale(0.1 -0.1)">
       <use xlink:href="#DejaVuSans-34"/>
      </g>
     </g>
    </g>
    <g id="xtick_15">
     <g id="line2d_42">
      <path d="M 409.684067 362.946667
L 409.684067 219.733333
" clip-path="url(#pa23f3b0f28)" style="fill: none; stroke: #b0b0b0; stroke-opacity: 0.2; stroke-width: 0.8; stroke-linecap: square"/>
     </g>
     <g id="line2d_43">
      <g>
       <use xlink:href="#m5a835ee6a5" x="409.684067" y="362.946667" style="stroke: #000000; stroke-width: 0.8"/>
      </g>
     </g>
     <g id="text_22">
      <!-- 5 -->
      <g transform="translate(406.502817 377.545104) scale(0.1 -0.1)">
       <use xlink:href="#DejaVuSans-35"/>
      </g>
     </g>
    </g>
    <g id="xtick_16">
     <g id="line2d_44">
      <path d="M 475.798387 362.946667
L 475.798387 219.733333
" clip-path="url(#pa23f3b0f28)" style="fill: none; stroke: #b0b0b0; stroke-opacity: 0.2; stroke-width: 0.8; stroke-linecap: square"/>
     </g>
     <g id="line2d_45">
      <g>
       <use xlink:href="#m5a835ee6a5" x="475.798387" y="362.946667" style="stroke: #000000; stroke-width: 0.8"/>
      </g>
     </g>
     <g id="text_23">
      <!-- 6 -->
      <g transform="translate(472.617137 377.545104) scale(0.1 -0.1)">
       <use xlink:href="#DejaVuSans-36"/>
      </g>
     </g>
    </g>
    <g id="xtick_17">
     <g id="line2d_46">
      <path d="M 541.912707 362.946667
L 541.912707 219.733333
" clip-path="url(#pa23f3b0f28)" style="fill: none; stroke: #b0b0b0; stroke-opacity: 0.2; stroke-width: 0.8; stroke-linecap: square"/>
     </g>
     <g id="line2d_47">
      <g>
       <use xlink:href="#m5a835ee6a5" x="541.912707" y="362.946667" style="stroke: #000000; stroke-width: 0.8"/>
      </g>
     </g>
     <g id="text_24">
      <!-- 7 -->
      <g transform="translate(538.731457 377.545104) scale(0.1 -0.1)">
       <use xlink:href="#DejaVuSans-37"/>
      </g>
     </g>
    </g>
    <g id="xtick_18">
     <g id="line2d_48">
      <path d="M 608.027027 362.946667
L 608.027027 219.733333
" clip-path="url(#pa23f3b0f28)" style="fill: none; stroke: #b0b0b0; stroke-opacity: 0.2; stroke-width: 0.8; stroke-linecap: square"/>
     </g>
     <g id="line2d_49">
      <g>
       <use xlink:href="#m5a835ee6a5" x="608.027027" y="362.946667" style="stroke: #000000; stroke-width: 0.8"/>
      </g>
     </g>
     <g id="text_25">
      <!-- 8 -->
      <g transform="translate(604.845777 377.545104) scale(0.1 -0.1)">
       <use xlink:href="#DejaVuSans-38"/>
      </g>
     </g>
    </g>
    <g id="text_26">
     <!-- Actual native time (s) -->
     <g transform="translate(292.748437 391.223229) scale(0.1 -0.1)">
      <defs>
       <path id="DejaVuSans-41" d="M 2188 4044
L 1331 1722
L 3047 1722
L 2188 4044
z
M 1831 4666
L 2547 4666
L 4325 0
L 3669 0
L 3244 1197
L 1141 1197
L 716 0
L 50 0
L 1831 4666
z
" transform="scale(0.015625)"/>
       <path id="DejaVuSans-63" d="M 3122 3366
L 3122 2828
Q 2878 2963 2633 3030
Q 2388 3097 2138 3097
Q 1578 3097 1268 2742
Q 959 2388 959 1747
Q 959 1106 1268 751
Q 1578 397 2138 397
Q 2388 397 2633 464
Q 2878 531 3122 666
L 3122 134
Q 2881 22 2623 -34
Q 2366 -91 2075 -91
Q 1284 -91 818 406
Q 353 903 353 1747
Q 353 2603 823 3093
Q 1294 3584 2113 3584
Q 2378 3584 2631 3529
Q 2884 3475 3122 3366
z
" transform="scale(0.015625)"/>
       <path id="DejaVuSans-76" d="M 191 3500
L 800 3500
L 1894 563
L 2988 3500
L 3597 3500
L 2284 0
L 1503 0
L 191 3500
z
" transform="scale(0.015625)"/>
       <path id="DejaVuSans-73" d="M 2834 3397
L 2834 2853
Q 2591 2978 2328 3040
Q 2066 3103 1784 3103
Q 1356 3103 1142 2972
Q 928 2841 928 2578
Q 928 2378 1081 2264
Q 1234 2150 1697 2047
L 1894 2003
Q 2506 1872 2764 1633
Q 3022 1394 3022 966
Q 3022 478 2636 193
Q 2250 -91 1575 -91
Q 1294 -91 989 -36
Q 684 19 347 128
L 347 722
Q 666 556 975 473
Q 1284 391 1588 391
Q 1994 391 2212 530
Q 2431 669 2431 922
Q 2431 1156 2273 1281
Q 2116 1406 1581 1522
L 1381 1569
Q 847 1681 609 1914
Q 372 2147 372 2553
Q 372 3047 722 3315
Q 1072 3584 1716 3584
Q 2034 3584 2315 3537
Q 2597 3491 2834 3397
z
" transform="scale(0.015625)"/>
      </defs>
      <use xlink:href="#DejaVuSans-41"/>
      <use xlink:href="#DejaVuSans-63" transform="translate(66.658203 0)"/>
      <use xlink:href="#DejaVuSans-74" transform="translate(121.638672 0)"/>
      <use xlink:href="#DejaVuSans-75" transform="translate(160.847656 0)"/>
      <use xlink:href="#DejaVuSans-61" transform="translate(224.226562 0)"/>
      <use xlink:href="#DejaVuSans-6c" transform="translate(285.505859 0)"/>
      <use xlink:href="#DejaVuSans-20" transform="translate(313.289062 0)"/>
      <use xlink:href="#DejaVuSans-6e" transform="translate(345.076172 0)"/>
      <use xlink:href="#DejaVuSans-61" transform="translate(408.455078 0)"/>
      <use xlink:href="#DejaVuSans-74" transform="translate(469.734375 0)"/>
      <use xlink:href="#DejaVuSans-69" transform="translate(508.943359 0)"/>
      <use xlink:href="#DejaVuSans-76" transform="translate(536.726562 0)"/>
      <use xlink:href="#DejaVuSans-65" transform="translate(595.90625 0)"/>
      <use xlink:href="#DejaVuSans-20" transform="translate(657.429688 0)"/>
      <use xlink:href="#DejaVuSans-74" transform="translate(689.216797 0)"/>
      <use xlink:href="#DejaVuSans-69" transform="translate(728.425781 0)"/>
      <use xlink:href="#DejaVuSans-6d" transform="translate(756.208984 0)"/>
      <use xlink:href="#DejaVuSans-65" transform="translate(853.621094 0)"/>
      <use xlink:href="#DejaVuSans-20" transform="translate(915.144531 0)"/>
      <use xlink:href="#DejaVuSans-28" transform="translate(946.931641 0)"/>
      <use xlink:href="#DejaVuSans-73" transform="translate(985.945312 0)"/>
      <use xlink:href="#DejaVuSans-29" transform="translate(1038.044922 0)"/>
     </g>
    </g>
   </g>
   <g id="matplotlib.axis_4">
    <g id="ytick_5">
     <g id="line2d_50">
      <path d="M 56 356.43697
L 637.2 356.43697
" clip-path="url(#pa23f3b0f28)" style="fill: none; stroke: #b0b0b0; stroke-opacity: 0.2; stroke-width: 0.8; stroke-linecap: square"/>
     </g>
     <g id="line2d_51">
      <g>
       <use xlink:href="#m83515139c9" x="56" y="356.43697" style="stroke: #000000; stroke-width: 0.8"/>
      </g>
     </g>
     <g id="text_27">
      <!-- $\mathdefault{0}$ -->
      <g transform="translate(42.6 360.236188) scale(0.1 -0.1)">
       <use xlink:href="#DejaVuSans-30" transform="translate(0 0.78125)"/>
      </g>
     </g>
    </g>
    <g id="ytick_6">
     <g id="line2d_52">
      <path d="M 56 226.24303
L 637.2 226.24303
" clip-path="url(#pa23f3b0f28)" style="fill: none; stroke: #b0b0b0; stroke-opacity: 0.2; stroke-width: 0.8; stroke-linecap: square"/>
     </g>
     <g id="line2d_53">
      <g>
       <use xlink:href="#m83515139c9" x="56" y="226.24303" style="stroke: #000000; stroke-width: 0.8"/>
      </g>
     </g>
     <g id="text_28">
      <!-- $\mathdefault{10^{-1}}$ -->
      <g transform="translate(25.5 230.042249) scale(0.1 -0.1)">
       <use xlink:href="#DejaVuSans-31" transform="translate(0 0.684375)"/>
       <use xlink:href="#DejaVuSans-30" transform="translate(63.623047 0.684375)"/>
       <use xlink:href="#DejaVuSans-2212" transform="translate(128.203125 38.965625) scale(0.7)"/>
       <use xlink:href="#DejaVuSans-31" transform="translate(186.855469 38.965625) scale(0.7)"/>
      </g>
     </g>
    </g>
    <g id="text_29">
     <!-- All82 scalar maximum (N) -->
     <g transform="translate(19.420313 356.429062) rotate(-90) scale(0.1 -0.1)">
      <defs>
       <path id="DejaVuSans-72" d="M 2631 2963
Q 2534 3019 2420 3045
Q 2306 3072 2169 3072
Q 1681 3072 1420 2755
Q 1159 2438 1159 1844
L 1159 0
L 581 0
L 581 3500
L 1159 3500
L 1159 2956
Q 1341 3275 1631 3429
Q 1922 3584 2338 3584
Q 2397 3584 2469 3576
Q 2541 3569 2628 3553
L 2631 2963
z
" transform="scale(0.015625)"/>
       <path id="DejaVuSans-78" d="M 3513 3500
L 2247 1797
L 3578 0
L 2900 0
L 1881 1375
L 863 0
L 184 0
L 1544 1831
L 300 3500
L 978 3500
L 1906 2253
L 2834 3500
L 3513 3500
z
" transform="scale(0.015625)"/>
       <path id="DejaVuSans-4e" d="M 628 4666
L 1478 4666
L 3547 763
L 3547 4666
L 4159 4666
L 4159 0
L 3309 0
L 1241 3903
L 1241 0
L 628 0
L 628 4666
z
" transform="scale(0.015625)"/>
      </defs>
      <use xlink:href="#DejaVuSans-41"/>
      <use xlink:href="#DejaVuSans-6c" transform="translate(68.408203 0)"/>
      <use xlink:href="#DejaVuSans-6c" transform="translate(96.191406 0)"/>
      <use xlink:href="#DejaVuSans-38" transform="translate(123.974609 0)"/>
      <use xlink:href="#DejaVuSans-32" transform="translate(187.597656 0)"/>
      <use xlink:href="#DejaVuSans-20" transform="translate(251.220703 0)"/>
      <use xlink:href="#DejaVuSans-73" transform="translate(283.007812 0)"/>
      <use xlink:href="#DejaVuSans-63" transform="translate(335.107422 0)"/>
      <use xlink:href="#DejaVuSans-61" transform="translate(390.087891 0)"/>
      <use xlink:href="#DejaVuSans-6c" transform="translate(451.367188 0)"/>
      <use xlink:href="#DejaVuSans-61" transform="translate(479.150391 0)"/>
      <use xlink:href="#DejaVuSans-72" transform="translate(540.429688 0)"/>
      <use xlink:href="#DejaVuSans-20" transform="translate(581.542969 0)"/>
      <use xlink:href="#DejaVuSans-6d" transform="translate(613.330078 0)"/>
      <use xlink:href="#DejaVuSans-61" transform="translate(710.742188 0)"/>
      <use xlink:href="#DejaVuSans-78" transform="translate(772.021484 0)"/>
      <use xlink:href="#DejaVuSans-69" transform="translate(831.201172 0)"/>
      <use xlink:href="#DejaVuSans-6d" transform="translate(858.984375 0)"/>
      <use xlink:href="#DejaVuSans-75" transform="translate(956.396484 0)"/>
      <use xlink:href="#DejaVuSans-6d" transform="translate(1019.775391 0)"/>
      <use xlink:href="#DejaVuSans-20" transform="translate(1117.1875 0)"/>
      <use xlink:href="#DejaVuSans-28" transform="translate(1148.974609 0)"/>
      <use xlink:href="#DejaVuSans-4e" transform="translate(1187.988281 0)"/>
      <use xlink:href="#DejaVuSans-29" transform="translate(1262.792969 0)"/>
     </g>
    </g>
   </g>
   <g id="line2d_54">
    <path d="M 82.418182 356.43697
L 610.781818 356.43697
L 610.781818 356.43697
" clip-path="url(#pa23f3b0f28)" style="fill: none; stroke: #68788b; stroke-width: 1.5; stroke-linecap: square"/>
   </g>
   <g id="line2d_55">
    <path d="M 82.418182 356.43697
L 610.781818 356.43697
L 610.781818 356.43697
" clip-path="url(#pa23f3b0f28)" style="fill: none; stroke: #18775b; stroke-width: 1.5; stroke-linecap: square"/>
   </g>
   <g id="line2d_56">
    <path d="M 56 226.24303
L 637.2 226.24303
" clip-path="url(#pa23f3b0f28)" style="fill: none; stroke-dasharray: 5.55,2.4; stroke-dashoffset: 0; stroke: #a62431; stroke-width: 1.5"/>
   </g>
   <g id="patch_9">
    <path d="M 56 362.946667
L 56 219.733333
" style="fill: none; stroke: #000000; stroke-width: 0.8; stroke-linejoin: miter; stroke-linecap: square"/>
   </g>
   <g id="patch_10">
    <path d="M 637.2 362.946667
L 637.2 219.733333
" style="fill: none; stroke: #000000; stroke-width: 0.8; stroke-linejoin: miter; stroke-linecap: square"/>
   </g>
   <g id="patch_11">
    <path d="M 56 362.946667
L 637.2 362.946667
" style="fill: none; stroke: #000000; stroke-width: 0.8; stroke-linejoin: miter; stroke-linecap: square"/>
   </g>
   <g id="patch_12">
    <path d="M 56 219.733333
L 637.2 219.733333
" style="fill: none; stroke: #000000; stroke-width: 0.8; stroke-linejoin: miter; stroke-linecap: square"/>
   </g>
   <g id="legend_2">
    <g id="patch_13">
     <path d="M 556.0875 312.505469
L 630.9 312.505469
Q 632.7 312.505469 632.7 310.705469
L 632.7 271.974531
Q 632.7 270.174531 630.9 270.174531
L 556.0875 270.174531
Q 554.2875 270.174531 554.2875 271.974531
L 554.2875 310.705469
Q 554.2875 312.505469 556.0875 312.505469
z
" style="fill: #ffffff; opacity: 0.8; stroke: #cccccc; stroke-linejoin: miter"/>
    </g>
    <g id="line2d_57">
     <path d="M 557.8875 277.463125
L 566.8875 277.463125
L 575.8875 277.463125
" style="fill: none; stroke: #68788b; stroke-width: 1.5; stroke-linecap: square"/>
    </g>
    <g id="text_30">
     <!-- Raw -->
     <g transform="translate(583.0875 280.613125) scale(0.09 -0.09)">
      <use xlink:href="#DejaVuSans-52"/>
      <use xlink:href="#DejaVuSans-61" transform="translate(67.232422 0)"/>
      <use xlink:href="#DejaVuSans-77" transform="translate(128.511719 0)"/>
     </g>
    </g>
    <g id="line2d_58">
     <path d="M 557.8875 290.673437
L 566.8875 290.673437
L 575.8875 290.673437
" style="fill: none; stroke: #18775b; stroke-width: 1.5; stroke-linecap: square"/>
    </g>
    <g id="text_31">
     <!-- Candidate -->
     <g transform="translate(583.0875 293.823437) scale(0.09 -0.09)">
      <use xlink:href="#DejaVuSans-43"/>
      <use xlink:href="#DejaVuSans-61" transform="translate(69.824219 0)"/>
      <use xlink:href="#DejaVuSans-6e" transform="translate(131.103516 0)"/>
      <use xlink:href="#DejaVuSans-64" transform="translate(194.482422 0)"/>
      <use xlink:href="#DejaVuSans-69" transform="translate(257.958984 0)"/>
      <use xlink:href="#DejaVuSans-64" transform="translate(285.742188 0)"/>
      <use xlink:href="#DejaVuSans-61" transform="translate(349.21875 0)"/>
      <use xlink:href="#DejaVuSans-74" transform="translate(410.498047 0)"/>
      <use xlink:href="#DejaVuSans-65" transform="translate(449.707031 0)"/>
     </g>
    </g>
    <g id="line2d_59">
     <path d="M 557.8875 303.88375
L 566.8875 303.88375
L 575.8875 303.88375
" style="fill: none; stroke-dasharray: 5.55,2.4; stroke-dashoffset: 0; stroke: #a62431; stroke-width: 1.5"/>
    </g>
    <g id="text_32">
     <!-- 0.1 N -->
     <g transform="translate(583.0875 307.03375) scale(0.09 -0.09)">
      <use xlink:href="#DejaVuSans-30"/>
      <use xlink:href="#DejaVuSans-2e" transform="translate(63.623047 0)"/>
      <use xlink:href="#DejaVuSans-31" transform="translate(95.410156 0)"/>
      <use xlink:href="#DejaVuSans-20" transform="translate(159.033203 0)"/>
      <use xlink:href="#DejaVuSans-4e" transform="translate(190.820312 0)"/>
     </g>
    </g>
   </g>
  </g>
  <g id="axes_3">
   <g id="patch_14">
    <path d="M 56 548.12
L 637.2 548.12
L 637.2 404.906667
L 56 404.906667
z
" style="fill: #ffffff"/>
   </g>
   <g id="patch_15">
    <path d="M 82.418182 548.12
L 133.550147 548.12
L 133.550147 429.514155
L 82.418182 429.514155
z
" clip-path="url(#p5f9871c3e0)" style="fill: #1f77b4"/>
   </g>
   <g id="patch_16">
    <path d="M 224.451417 548.12
L 275.583382 548.12
L 275.583382 427.806717
L 224.451417 427.806717
z
" clip-path="url(#p5f9871c3e0)" style="fill: #1f77b4"/>
   </g>
   <g id="patch_17">
    <path d="M 366.484653 548.12
L 417.616618 548.12
L 417.616618 423.843787
L 366.484653 423.843787
z
" clip-path="url(#p5f9871c3e0)" style="fill: #1f77b4"/>
   </g>
   <g id="patch_18">
    <path d="M 508.517889 548.12
L 559.649853 548.12
L 559.649853 411.726349
L 508.517889 411.726349
z
" clip-path="url(#p5f9871c3e0)" style="fill: #1f77b4"/>
   </g>
   <g id="patch_19">
    <path d="M 133.550147 548.12
L 184.682111 548.12
L 184.682111 448.324675
L 133.550147 448.324675
z
" clip-path="url(#p5f9871c3e0)" style="fill: #ff7f0e"/>
   </g>
   <g id="patch_20">
    <path d="M 275.583382 548.12
L 326.715347 548.12
L 326.715347 444.537896
L 275.583382 444.537896
z
" clip-path="url(#p5f9871c3e0)" style="fill: #ff7f0e"/>
   </g>
   <g id="patch_21">
    <path d="M 417.616618 548.12
L 468.748583 548.12
L 468.748583 421.716584
L 417.616618 421.716584
z
" clip-path="url(#p5f9871c3e0)" style="fill: #ff7f0e"/>
   </g>
   <g id="patch_22">
    <path d="M 559.649853 548.12
L 610.781818 548.12
L 610.781818 430.558383
L 559.649853 430.558383
z
" clip-path="url(#p5f9871c3e0)" style="fill: #ff7f0e"/>
   </g>
   <g id="matplotlib.axis_5">
    <g id="xtick_19">
     <g id="line2d_60">
      <path d="M 133.550147 548.12
L 133.550147 404.906667
" clip-path="url(#p5f9871c3e0)" style="fill: none; stroke: #b0b0b0; stroke-opacity: 0.2; stroke-width: 0.8; stroke-linecap: square"/>
     </g>
     <g id="line2d_61">
      <g>
       <use xlink:href="#m5a835ee6a5" x="133.550147" y="548.12" style="stroke: #000000; stroke-width: 0.8"/>
      </g>
     </g>
     <g id="text_33">
      <!-- F_L -->
      <g transform="translate(125.388428 562.440313) scale(0.1 -0.1)">
       <defs>
        <path id="DejaVuSans-46" d="M 628 4666
L 3309 4666
L 3309 4134
L 1259 4134
L 1259 2759
L 3109 2759
L 3109 2228
L 1259 2228
L 1259 0
L 628 0
L 628 4666
z
" transform="scale(0.015625)"/>
        <path id="DejaVuSans-5f" d="M 3263 -1063
L 3263 -1509
L -63 -1509
L -63 -1063
L 3263 -1063
z
" transform="scale(0.015625)"/>
        <path id="DejaVuSans-4c" d="M 628 4666
L 1259 4666
L 1259 531
L 3531 531
L 3531 0
L 628 0
L 628 4666
z
" transform="scale(0.015625)"/>
       </defs>
       <use xlink:href="#DejaVuSans-46"/>
       <use xlink:href="#DejaVuSans-5f" transform="translate(57.519531 0)"/>
       <use xlink:href="#DejaVuSans-4c" transform="translate(107.519531 0)"/>
      </g>
     </g>
    </g>
    <g id="xtick_20">
     <g id="line2d_62">
      <path d="M 275.583382 548.12
L 275.583382 404.906667
" clip-path="url(#p5f9871c3e0)" style="fill: none; stroke: #b0b0b0; stroke-opacity: 0.2; stroke-width: 0.8; stroke-linecap: square"/>
     </g>
     <g id="line2d_63">
      <g>
       <use xlink:href="#m5a835ee6a5" x="275.583382" y="548.12" style="stroke: #000000; stroke-width: 0.8"/>
      </g>
     </g>
     <g id="text_34">
      <!-- F_R -->
      <g transform="translate(266.733382 562.440313) scale(0.1 -0.1)">
       <use xlink:href="#DejaVuSans-46"/>
       <use xlink:href="#DejaVuSans-5f" transform="translate(57.519531 0)"/>
       <use xlink:href="#DejaVuSans-52" transform="translate(107.519531 0)"/>
      </g>
     </g>
    </g>
    <g id="xtick_21">
     <g id="line2d_64">
      <path d="M 417.616618 548.12
L 417.616618 404.906667
" clip-path="url(#p5f9871c3e0)" style="fill: none; stroke: #b0b0b0; stroke-opacity: 0.2; stroke-width: 0.8; stroke-linecap: square"/>
     </g>
     <g id="line2d_65">
      <g>
       <use xlink:href="#m5a835ee6a5" x="417.616618" y="548.12" style="stroke: #000000; stroke-width: 0.8"/>
      </g>
     </g>
     <g id="text_35">
      <!-- U_L -->
      <g transform="translate(408.671305 562.440313) scale(0.1 -0.1)">
       <defs>
        <path id="DejaVuSans-55" d="M 556 4666
L 1191 4666
L 1191 1831
Q 1191 1081 1462 751
Q 1734 422 2344 422
Q 2950 422 3222 751
Q 3494 1081 3494 1831
L 3494 4666
L 4128 4666
L 4128 1753
Q 4128 841 3676 375
Q 3225 -91 2344 -91
Q 1459 -91 1007 375
Q 556 841 556 1753
L 556 4666
z
" transform="scale(0.015625)"/>
       </defs>
       <use xlink:href="#DejaVuSans-55"/>
       <use xlink:href="#DejaVuSans-5f" transform="translate(73.193359 0)"/>
       <use xlink:href="#DejaVuSans-4c" transform="translate(123.193359 0)"/>
      </g>
     </g>
    </g>
    <g id="xtick_22">
     <g id="line2d_66">
      <path d="M 559.649853 548.12
L 559.649853 404.906667
" clip-path="url(#p5f9871c3e0)" style="fill: none; stroke: #b0b0b0; stroke-opacity: 0.2; stroke-width: 0.8; stroke-linecap: square"/>
     </g>
     <g id="line2d_67">
      <g>
       <use xlink:href="#m5a835ee6a5" x="559.649853" y="548.12" style="stroke: #000000; stroke-width: 0.8"/>
      </g>
     </g>
     <g id="text_36">
      <!-- U_R -->
      <g transform="translate(550.01626 562.440313) scale(0.1 -0.1)">
       <use xlink:href="#DejaVuSans-55"/>
       <use xlink:href="#DejaVuSans-5f" transform="translate(73.193359 0)"/>
       <use xlink:href="#DejaVuSans-52" transform="translate(123.193359 0)"/>
      </g>
     </g>
    </g>
   </g>
   <g id="matplotlib.axis_6">
    <g id="ytick_7">
     <g id="line2d_68">
      <path d="M 56 548.12
L 637.2 548.12
" clip-path="url(#p5f9871c3e0)" style="fill: none; stroke: #b0b0b0; stroke-opacity: 0.2; stroke-width: 0.8; stroke-linecap: square"/>
     </g>
     <g id="line2d_69">
      <g>
       <use xlink:href="#m83515139c9" x="56" y="548.12" style="stroke: #000000; stroke-width: 0.8"/>
      </g>
     </g>
     <g id="text_37">
      <!-- 0.00 -->
      <g transform="translate(26.734375 551.919219) scale(0.1 -0.1)">
       <use xlink:href="#DejaVuSans-30"/>
       <use xlink:href="#DejaVuSans-2e" transform="translate(63.623047 0)"/>
       <use xlink:href="#DejaVuSans-30" transform="translate(95.410156 0)"/>
       <use xlink:href="#DejaVuSans-30" transform="translate(159.033203 0)"/>
      </g>
     </g>
    </g>
    <g id="ytick_8">
     <g id="line2d_70">
      <path d="M 56 523.639974
L 637.2 523.639974
" clip-path="url(#p5f9871c3e0)" style="fill: none; stroke: #b0b0b0; stroke-opacity: 0.2; stroke-width: 0.8; stroke-linecap: square"/>
     </g>
     <g id="line2d_71">
      <g>
       <use xlink:href="#m83515139c9" x="56" y="523.639974" style="stroke: #000000; stroke-width: 0.8"/>
      </g>
     </g>
     <g id="text_38">
      <!-- 0.25 -->
      <g transform="translate(26.734375 527.439193) scale(0.1 -0.1)">
       <use xlink:href="#DejaVuSans-30"/>
       <use xlink:href="#DejaVuSans-2e" transform="translate(63.623047 0)"/>
       <use xlink:href="#DejaVuSans-32" transform="translate(95.410156 0)"/>
       <use xlink:href="#DejaVuSans-35" transform="translate(159.033203 0)"/>
      </g>
     </g>
    </g>
    <g id="ytick_9">
     <g id="line2d_72">
      <path d="M 56 499.159948
L 637.2 499.159948
" clip-path="url(#p5f9871c3e0)" style="fill: none; stroke: #b0b0b0; stroke-opacity: 0.2; stroke-width: 0.8; stroke-linecap: square"/>
     </g>
     <g id="line2d_73">
      <g>
       <use xlink:href="#m83515139c9" x="56" y="499.159948" style="stroke: #000000; stroke-width: 0.8"/>
      </g>
     </g>
     <g id="text_39">
      <!-- 0.50 -->
      <g transform="translate(26.734375 502.959167) scale(0.1 -0.1)">
       <use xlink:href="#DejaVuSans-30"/>
       <use xlink:href="#DejaVuSans-2e" transform="translate(63.623047 0)"/>
       <use xlink:href="#DejaVuSans-35" transform="translate(95.410156 0)"/>
       <use xlink:href="#DejaVuSans-30" transform="translate(159.033203 0)"/>
      </g>
     </g>
    </g>
    <g id="ytick_10">
     <g id="line2d_74">
      <path d="M 56 474.679922
L 637.2 474.679922
" clip-path="url(#p5f9871c3e0)" style="fill: none; stroke: #b0b0b0; stroke-opacity: 0.2; stroke-width: 0.8; stroke-linecap: square"/>
     </g>
     <g id="line2d_75">
      <g>
       <use xlink:href="#m83515139c9" x="56" y="474.679922" style="stroke: #000000; stroke-width: 0.8"/>
      </g>
     </g>
     <g id="text_40">
      <!-- 0.75 -->
      <g transform="translate(26.734375 478.479141) scale(0.1 -0.1)">
       <use xlink:href="#DejaVuSans-30"/>
       <use xlink:href="#DejaVuSans-2e" transform="translate(63.623047 0)"/>
       <use xlink:href="#DejaVuSans-37" transform="translate(95.410156 0)"/>
       <use xlink:href="#DejaVuSans-35" transform="translate(159.033203 0)"/>
      </g>
     </g>
    </g>
    <g id="ytick_11">
     <g id="line2d_76">
      <path d="M 56 450.199896
L 637.2 450.199896
" clip-path="url(#p5f9871c3e0)" style="fill: none; stroke: #b0b0b0; stroke-opacity: 0.2; stroke-width: 0.8; stroke-linecap: square"/>
     </g>
     <g id="line2d_77">
      <g>
       <use xlink:href="#m83515139c9" x="56" y="450.199896" style="stroke: #000000; stroke-width: 0.8"/>
      </g>
     </g>
     <g id="text_41">
      <!-- 1.00 -->
      <g transform="translate(26.734375 453.999115) scale(0.1 -0.1)">
       <use xlink:href="#DejaVuSans-31"/>
       <use xlink:href="#DejaVuSans-2e" transform="translate(63.623047 0)"/>
       <use xlink:href="#DejaVuSans-30" transform="translate(95.410156 0)"/>
       <use xlink:href="#DejaVuSans-30" transform="translate(159.033203 0)"/>
      </g>
     </g>
    </g>
    <g id="ytick_12">
     <g id="line2d_78">
      <path d="M 56 425.71987
L 637.2 425.71987
" clip-path="url(#p5f9871c3e0)" style="fill: none; stroke: #b0b0b0; stroke-opacity: 0.2; stroke-width: 0.8; stroke-linecap: square"/>
     </g>
     <g id="line2d_79">
      <g>
       <use xlink:href="#m83515139c9" x="56" y="425.71987" style="stroke: #000000; stroke-width: 0.8"/>
      </g>
     </g>
     <g id="text_42">
      <!-- 1.25 -->
      <g transform="translate(26.734375 429.519089) scale(0.1 -0.1)">
       <use xlink:href="#DejaVuSans-31"/>
       <use xlink:href="#DejaVuSans-2e" transform="translate(63.623047 0)"/>
       <use xlink:href="#DejaVuSans-32" transform="translate(95.410156 0)"/>
       <use xlink:href="#DejaVuSans-35" transform="translate(159.033203 0)"/>
      </g>
     </g>
    </g>
    <g id="text_43">
     <!-- Tracking RMSE ratio -->
     <g transform="translate(20.654688 526.153958) rotate(-90) scale(0.1 -0.1)">
      <defs>
       <path id="DejaVuSans-54" d="M -19 4666
L 3928 4666
L 3928 4134
L 2272 4134
L 2272 0
L 1638 0
L 1638 4134
L -19 4134
L -19 4666
z
" transform="scale(0.015625)"/>
       <path id="DejaVuSans-6b" d="M 581 4863
L 1159 4863
L 1159 1991
L 2875 3500
L 3609 3500
L 1753 1863
L 3688 0
L 2938 0
L 1159 1709
L 1159 0
L 581 0
L 581 4863
z
" transform="scale(0.015625)"/>
       <path id="DejaVuSans-53" d="M 3425 4513
L 3425 3897
Q 3066 4069 2747 4153
Q 2428 4238 2131 4238
Q 1616 4238 1336 4038
Q 1056 3838 1056 3469
Q 1056 3159 1242 3001
Q 1428 2844 1947 2747
L 2328 2669
Q 3034 2534 3370 2195
Q 3706 1856 3706 1288
Q 3706 609 3251 259
Q 2797 -91 1919 -91
Q 1588 -91 1214 -16
Q 841 59 441 206
L 441 856
Q 825 641 1194 531
Q 1563 422 1919 422
Q 2459 422 2753 634
Q 3047 847 3047 1241
Q 3047 1584 2836 1778
Q 2625 1972 2144 2069
L 1759 2144
Q 1053 2284 737 2584
Q 422 2884 422 3419
Q 422 4038 858 4394
Q 1294 4750 2059 4750
Q 2388 4750 2728 4690
Q 3069 4631 3425 4513
z
" transform="scale(0.015625)"/>
       <path id="DejaVuSans-45" d="M 628 4666
L 3578 4666
L 3578 4134
L 1259 4134
L 1259 2753
L 3481 2753
L 3481 2222
L 1259 2222
L 1259 531
L 3634 531
L 3634 0
L 628 0
L 628 4666
z
" transform="scale(0.015625)"/>
       <path id="DejaVuSans-6f" d="M 1959 3097
Q 1497 3097 1228 2736
Q 959 2375 959 1747
Q 959 1119 1226 758
Q 1494 397 1959 397
Q 2419 397 2687 759
Q 2956 1122 2956 1747
Q 2956 2369 2687 2733
Q 2419 3097 1959 3097
z
M 1959 3584
Q 2709 3584 3137 3096
Q 3566 2609 3566 1747
Q 3566 888 3137 398
Q 2709 -91 1959 -91
Q 1206 -91 779 398
Q 353 888 353 1747
Q 353 2609 779 3096
Q 1206 3584 1959 3584
z
" transform="scale(0.015625)"/>
      </defs>
      <use xlink:href="#DejaVuSans-54"/>
      <use xlink:href="#DejaVuSans-72" transform="translate(46.333984 0)"/>
      <use xlink:href="#DejaVuSans-61" transform="translate(87.447266 0)"/>
      <use xlink:href="#DejaVuSans-63" transform="translate(148.726562 0)"/>
      <use xlink:href="#DejaVuSans-6b" transform="translate(203.707031 0)"/>
      <use xlink:href="#DejaVuSans-69" transform="translate(261.617188 0)"/>
      <use xlink:href="#DejaVuSans-6e" transform="translate(289.400391 0)"/>
      <use xlink:href="#DejaVuSans-67" transform="translate(352.779297 0)"/>
      <use xlink:href="#DejaVuSans-20" transform="translate(416.255859 0)"/>
      <use xlink:href="#DejaVuSans-52" transform="translate(448.042969 0)"/>
      <use xlink:href="#DejaVuSans-4d" transform="translate(517.525391 0)"/>
      <use xlink:href="#DejaVuSans-53" transform="translate(603.804688 0)"/>
      <use xlink:href="#DejaVuSans-45" transform="translate(667.28125 0)"/>
      <use xlink:href="#DejaVuSans-20" transform="translate(730.464844 0)"/>
      <use xlink:href="#DejaVuSans-72" transform="translate(762.251953 0)"/>
      <use xlink:href="#DejaVuSans-61" transform="translate(803.365234 0)"/>
      <use xlink:href="#DejaVuSans-74" transform="translate(864.644531 0)"/>
      <use xlink:href="#DejaVuSans-69" transform="translate(903.853516 0)"/>
      <use xlink:href="#DejaVuSans-6f" transform="translate(931.636719 0)"/>
     </g>
    </g>
   </g>
   <g id="line2d_80">
    <path d="M 56 450.199896
L 637.2 450.199896
" clip-path="url(#p5f9871c3e0)" style="fill: none; stroke-dasharray: 5.55,2.4; stroke-dashoffset: 0; stroke: #a62431; stroke-width: 1.5"/>
   </g>
   <g id="patch_23">
    <path d="M 56 548.12
L 56 404.906667
" style="fill: none; stroke: #000000; stroke-width: 0.8; stroke-linejoin: miter; stroke-linecap: square"/>
   </g>
   <g id="patch_24">
    <path d="M 637.2 548.12
L 637.2 404.906667
" style="fill: none; stroke: #000000; stroke-width: 0.8; stroke-linejoin: miter; stroke-linecap: square"/>
   </g>
   <g id="patch_25">
    <path d="M 56 548.12
L 637.2 548.12
" style="fill: none; stroke: #000000; stroke-width: 0.8; stroke-linejoin: miter; stroke-linecap: square"/>
   </g>
   <g id="patch_26">
    <path d="M 56 404.906667
L 637.2 404.906667
" style="fill: none; stroke: #000000; stroke-width: 0.8; stroke-linejoin: miter; stroke-linecap: square"/>
   </g>
   <g id="legend_3">
    <g id="patch_27">
     <path d="M 62.3 438.527292
L 226.462812 438.527292
Q 228.262812 438.527292 228.262812 436.727292
L 228.262812 411.206667
Q 228.262812 409.406667 226.462812 409.406667
L 62.3 409.406667
Q 60.5 409.406667 60.5 411.206667
L 60.5 436.727292
Q 60.5 438.527292 62.3 438.527292
z
" style="fill: #ffffff; opacity: 0.8; stroke: #cccccc; stroke-linejoin: miter"/>
    </g>
    <g id="patch_28">
     <path d="M 64.1 419.84526
L 82.1 419.84526
L 82.1 413.54526
L 64.1 413.54526
z
" style="fill: #1f77b4"/>
    </g>
    <g id="text_44">
     <!-- Candidate RMSE / raw -->
     <g transform="translate(89.3 419.84526) scale(0.09 -0.09)">
      <defs>
       <path id="DejaVuSans-2f" d="M 1625 4666
L 2156 4666
L 531 -594
L 0 -594
L 1625 4666
z
" transform="scale(0.015625)"/>
      </defs>
      <use xlink:href="#DejaVuSans-43"/>
      <use xlink:href="#DejaVuSans-61" transform="translate(69.824219 0)"/>
      <use xlink:href="#DejaVuSans-6e" transform="translate(131.103516 0)"/>
      <use xlink:href="#DejaVuSans-64" transform="translate(194.482422 0)"/>
      <use xlink:href="#DejaVuSans-69" transform="translate(257.958984 0)"/>
      <use xlink:href="#DejaVuSans-64" transform="translate(285.742188 0)"/>
      <use xlink:href="#DejaVuSans-61" transform="translate(349.21875 0)"/>
      <use xlink:href="#DejaVuSans-74" transform="translate(410.498047 0)"/>
      <use xlink:href="#DejaVuSans-65" transform="translate(449.707031 0)"/>
      <use xlink:href="#DejaVuSans-20" transform="translate(511.230469 0)"/>
      <use xlink:href="#DejaVuSans-52" transform="translate(543.017578 0)"/>
      <use xlink:href="#DejaVuSans-4d" transform="translate(612.5 0)"/>
      <use xlink:href="#DejaVuSans-53" transform="translate(698.779297 0)"/>
      <use xlink:href="#DejaVuSans-45" transform="translate(762.255859 0)"/>
      <use xlink:href="#DejaVuSans-20" transform="translate(825.439453 0)"/>
      <use xlink:href="#DejaVuSans-2f" transform="translate(857.226562 0)"/>
      <use xlink:href="#DejaVuSans-20" transform="translate(890.917969 0)"/>
      <use xlink:href="#DejaVuSans-72" transform="translate(922.705078 0)"/>
      <use xlink:href="#DejaVuSans-61" transform="translate(963.818359 0)"/>
      <use xlink:href="#DejaVuSans-77" transform="translate(1025.097656 0)"/>
     </g>
    </g>
    <g id="patch_29">
     <path d="M 64.1 433.055573
L 82.1 433.055573
L 82.1 426.755573
L 64.1 426.755573
z
" style="fill: #ff7f0e"/>
    </g>
    <g id="text_45">
     <!-- Candidate RMSE / static initial -->
     <g transform="translate(89.3 433.055573) scale(0.09 -0.09)">
      <use xlink:href="#DejaVuSans-43"/>
      <use xlink:href="#DejaVuSans-61" transform="translate(69.824219 0)"/>
      <use xlink:href="#DejaVuSans-6e" transform="translate(131.103516 0)"/>
      <use xlink:href="#DejaVuSans-64" transform="translate(194.482422 0)"/>
      <use xlink:href="#DejaVuSans-69" transform="translate(257.958984 0)"/>
      <use xlink:href="#DejaVuSans-64" transform="translate(285.742188 0)"/>
      <use xlink:href="#DejaVuSans-61" transform="translate(349.21875 0)"/>
      <use xlink:href="#DejaVuSans-74" transform="translate(410.498047 0)"/>
      <use xlink:href="#DejaVuSans-65" transform="translate(449.707031 0)"/>
      <use xlink:href="#DejaVuSans-20" transform="translate(511.230469 0)"/>
      <use xlink:href="#DejaVuSans-52" transform="translate(543.017578 0)"/>
      <use xlink:href="#DejaVuSans-4d" transform="translate(612.5 0)"/>
      <use xlink:href="#DejaVuSans-53" transform="translate(698.779297 0)"/>
      <use xlink:href="#DejaVuSans-45" transform="translate(762.255859 0)"/>
      <use xlink:href="#DejaVuSans-20" transform="translate(825.439453 0)"/>
      <use xlink:href="#DejaVuSans-2f" transform="translate(857.226562 0)"/>
      <use xlink:href="#DejaVuSans-20" transform="translate(890.917969 0)"/>
      <use xlink:href="#DejaVuSans-73" transform="translate(922.705078 0)"/>
      <use xlink:href="#DejaVuSans-74" transform="translate(974.804688 0)"/>
      <use xlink:href="#DejaVuSans-61" transform="translate(1014.013672 0)"/>
      <use xlink:href="#DejaVuSans-74" transform="translate(1075.292969 0)"/>
      <use xlink:href="#DejaVuSans-69" transform="translate(1114.501953 0)"/>
      <use xlink:href="#DejaVuSans-63" transform="translate(1142.285156 0)"/>
      <use xlink:href="#DejaVuSans-20" transform="translate(1197.265625 0)"/>
      <use xlink:href="#DejaVuSans-69" transform="translate(1229.052734 0)"/>
      <use xlink:href="#DejaVuSans-6e" transform="translate(1256.835938 0)"/>
      <use xlink:href="#DejaVuSans-69" transform="translate(1320.214844 0)"/>
      <use xlink:href="#DejaVuSans-74" transform="translate(1347.998047 0)"/>
      <use xlink:href="#DejaVuSans-69" transform="translate(1387.207031 0)"/>
      <use xlink:href="#DejaVuSans-61" transform="translate(1414.990234 0)"/>
      <use xlink:href="#DejaVuSans-6c" transform="translate(1476.269531 0)"/>
     </g>
    </g>
   </g>
  </g>
  <g id="text_46">
   <!-- Complete paired development case 79: 480 controls / 960 microsteps -->
   <g transform="translate(114.139688 20.638125) scale(0.12 -0.12)">
    <defs>
     <path id="DejaVuSans-3a" d="M 750 794
L 1409 794
L 1409 0
L 750 0
L 750 794
z
M 750 3309
L 1409 3309
L 1409 2516
L 750 2516
L 750 3309
z
" transform="scale(0.015625)"/>
    </defs>
    <use xlink:href="#DejaVuSans-43"/>
    <use xlink:href="#DejaVuSans-6f" transform="translate(69.824219 0)"/>
    <use xlink:href="#DejaVuSans-6d" transform="translate(131.005859 0)"/>
    <use xlink:href="#DejaVuSans-70" transform="translate(228.417969 0)"/>
    <use xlink:href="#DejaVuSans-6c" transform="translate(291.894531 0)"/>
    <use xlink:href="#DejaVuSans-65" transform="translate(319.677734 0)"/>
    <use xlink:href="#DejaVuSans-74" transform="translate(381.201172 0)"/>
    <use xlink:href="#DejaVuSans-65" transform="translate(420.410156 0)"/>
    <use xlink:href="#DejaVuSans-20" transform="translate(481.933594 0)"/>
    <use xlink:href="#DejaVuSans-70" transform="translate(513.720703 0)"/>
    <use xlink:href="#DejaVuSans-61" transform="translate(577.197266 0)"/>
    <use xlink:href="#DejaVuSans-69" transform="translate(638.476562 0)"/>
    <use xlink:href="#DejaVuSans-72" transform="translate(666.259766 0)"/>
    <use xlink:href="#DejaVuSans-65" transform="translate(705.123047 0)"/>
    <use xlink:href="#DejaVuSans-64" transform="translate(766.646484 0)"/>
    <use xlink:href="#DejaVuSans-20" transform="translate(830.123047 0)"/>
    <use xlink:href="#DejaVuSans-64" transform="translate(861.910156 0)"/>
    <use xlink:href="#DejaVuSans-65" transform="translate(925.386719 0)"/>
    <use xlink:href="#DejaVuSans-76" transform="translate(986.910156 0)"/>
    <use xlink:href="#DejaVuSans-65" transform="translate(1046.089844 0)"/>
    <use xlink:href="#DejaVuSans-6c" transform="translate(1107.613281 0)"/>
    <use xlink:href="#DejaVuSans-6f" transform="translate(1135.396484 0)"/>
    <use xlink:href="#DejaVuSans-70" transform="translate(1196.578125 0)"/>
    <use xlink:href="#DejaVuSans-6d" transform="translate(1260.054688 0)"/>
    <use xlink:href="#DejaVuSans-65" transform="translate(1357.466797 0)"/>
    <use xlink:href="#DejaVuSans-6e" transform="translate(1418.990234 0)"/>
    <use xlink:href="#DejaVuSans-74" transform="translate(1482.369141 0)"/>
    <use xlink:href="#DejaVuSans-20" transform="translate(1521.578125 0)"/>
    <use xlink:href="#DejaVuSans-63" transform="translate(1553.365234 0)"/>
    <use xlink:href="#DejaVuSans-61" transform="translate(1608.345703 0)"/>
    <use xlink:href="#DejaVuSans-73" transform="translate(1669.625 0)"/>
    <use xlink:href="#DejaVuSans-65" transform="translate(1721.724609 0)"/>
    <use xlink:href="#DejaVuSans-20" transform="translate(1783.248047 0)"/>
    <use xlink:href="#DejaVuSans-37" transform="translate(1815.035156 0)"/>
    <use xlink:href="#DejaVuSans-39" transform="translate(1878.658203 0)"/>
    <use xlink:href="#DejaVuSans-3a" transform="translate(1942.28125 0)"/>
    <use xlink:href="#DejaVuSans-20" transform="translate(1975.972656 0)"/>
    <use xlink:href="#DejaVuSans-34" transform="translate(2007.759766 0)"/>
    <use xlink:href="#DejaVuSans-38" transform="translate(2071.382812 0)"/>
    <use xlink:href="#DejaVuSans-30" transform="translate(2135.005859 0)"/>
    <use xlink:href="#DejaVuSans-20" transform="translate(2198.628906 0)"/>
    <use xlink:href="#DejaVuSans-63" transform="translate(2230.416016 0)"/>
    <use xlink:href="#DejaVuSans-6f" transform="translate(2285.396484 0)"/>
    <use xlink:href="#DejaVuSans-6e" transform="translate(2346.578125 0)"/>
    <use xlink:href="#DejaVuSans-74" transform="translate(2409.957031 0)"/>
    <use xlink:href="#DejaVuSans-72" transform="translate(2449.166016 0)"/>
    <use xlink:href="#DejaVuSans-6f" transform="translate(2488.029297 0)"/>
    <use xlink:href="#DejaVuSans-6c" transform="translate(2549.210938 0)"/>
    <use xlink:href="#DejaVuSans-73" transform="translate(2576.994141 0)"/>
    <use xlink:href="#DejaVuSans-20" transform="translate(2629.09375 0)"/>
    <use xlink:href="#DejaVuSans-2f" transform="translate(2660.880859 0)"/>
    <use xlink:href="#DejaVuSans-20" transform="translate(2694.572266 0)"/>
    <use xlink:href="#DejaVuSans-39" transform="translate(2726.359375 0)"/>
    <use xlink:href="#DejaVuSans-36" transform="translate(2789.982422 0)"/>
    <use xlink:href="#DejaVuSans-30" transform="translate(2853.605469 0)"/>
    <use xlink:href="#DejaVuSans-20" transform="translate(2917.228516 0)"/>
    <use xlink:href="#DejaVuSans-6d" transform="translate(2949.015625 0)"/>
    <use xlink:href="#DejaVuSans-69" transform="translate(3046.427734 0)"/>
    <use xlink:href="#DejaVuSans-63" transform="translate(3074.210938 0)"/>
    <use xlink:href="#DejaVuSans-72" transform="translate(3129.191406 0)"/>
    <use xlink:href="#DejaVuSans-6f" transform="translate(3168.054688 0)"/>
    <use xlink:href="#DejaVuSans-73" transform="translate(3229.236328 0)"/>
    <use xlink:href="#DejaVuSans-74" transform="translate(3281.335938 0)"/>
    <use xlink:href="#DejaVuSans-65" transform="translate(3320.544922 0)"/>
    <use xlink:href="#DejaVuSans-70" transform="translate(3382.068359 0)"/>
    <use xlink:href="#DejaVuSans-73" transform="translate(3445.544922 0)"/>
   </g>
  </g>
 </g>
 <defs>
  <clipPath id="pdaf0172f99">
   <rect x="56" y="34.56" width="581.2" height="143.213333"/>
  </clipPath>
  <clipPath id="pa23f3b0f28">
   <rect x="56" y="219.733333" width="581.2" height="143.213333"/>
  </clipPath>
  <clipPath id="p5f9871c3e0">
   <rect x="56" y="404.906667" width="581.2" height="143.213333"/>
  </clipPath>
 </defs>
</svg>
