#usda 1.0
(
    defaultPrim = "alu_profile_4080_700"
    metersPerUnit = 1
    upAxis = "Z"
    doc = "SafeDuo R34 procedural asset (tools/r34_make_industrial_usd.py)"
)

def Xform "alu_profile_4080_700" (
    prepend apiSchemas = ["PhysicsRigidBodyAPI", "PhysicsMassAPI"]
)
{
    float physics:mass = 0.45
    bool physics:rigidBodyEnabled = 1

    def Scope "geo"
    {
        def Mesh "alu_profile_4080_700_mesh" (
            prepend apiSchemas = ["MaterialBindingAPI"]
        )
        {
            float3[] extent = [(-0.020000, -0.350000, -0.040000), (0.020000, 0.350000, 0.040000)]
            int[] faceVertexCounts = [3, 3, 3, 3, 3, 3, 3, 3, 3, 3, 3, 3, 3, 3, 3, 3, 3, 3, 3, 3, 3, 3, 3, 3, 3, 3, 3, 3, 3, 3, 3, 3, 3, 3, 3, 3, 3, 3, 3, 3, 3, 3, 3, 3, 3, 3, 3, 3, 3, 3, 3, 3, 3, 3, 3, 3, 3, 3, 3, 3, 3, 3, 3, 3, 3, 3, 3, 3, 3, 3, 3, 3, 3, 3, 3, 3, 3, 3, 3, 3, 3, 3, 3, 3, 3, 3, 3, 3, 3, 3, 3, 3, 3, 3, 3, 3, 3, 3, 3, 3, 4, 4, 4, 4, 4, 4, 4, 4, 4, 4, 4, 4, 4, 4, 4, 4, 4, 4, 4, 4, 4, 4, 4, 4, 4, 4, 4, 4, 4, 4, 4, 4, 4, 4, 4, 4, 4, 4, 4, 4, 4, 4, 4, 4, 4, 4, 4, 4, 4, 4, 4, 4]
            int[] faceVertexIndices = [0, 1, 2, 54, 53, 52, 0, 2, 3, 55, 54, 52, 0, 3, 4, 56, 55, 52, 6, 7, 8, 60, 59, 58, 6, 8, 9, 61, 60, 58, 5, 6, 9, 61, 58, 57, 9, 10, 11, 63, 62, 61, 9, 11, 12, 64, 63, 61, 5, 9, 12, 64, 61, 57, 4, 5, 12, 64, 57, 56, 4, 12, 13, 65, 64, 56, 4, 13, 14, 66, 65, 56, 0, 4, 14, 66, 56, 52, 15, 16, 17, 69, 68, 67, 15, 17, 18, 70, 69, 67, 14, 15, 18, 70, 67, 66, 18, 19, 20, 72, 71, 70, 14, 18, 20, 72, 70, 66, 14, 20, 21, 73, 72, 66, 23, 24, 25, 77, 76, 75, 23, 25, 26, 78, 77, 75, 22, 23, 26, 78, 75, 74, 26, 27, 28, 80, 79, 78, 26, 28, 29, 81, 80, 78, 22, 26, 29, 81, 78, 74, 21, 22, 29, 81, 74, 73, 14, 21, 29, 81, 73, 66, 14, 29, 30, 82, 81, 66, 14, 30, 31, 83, 82, 66, 32, 33, 34, 86, 85, 84, 32, 34, 35, 87, 86, 84, 31, 32, 35, 87, 84, 83, 35, 36, 37, 89, 88, 87, 35, 37, 38, 90, 89, 87, 31, 35, 38, 90, 87, 83, 31, 38, 39, 91, 90, 83, 14, 31, 39, 91, 83, 66, 14, 39, 40, 92, 91, 66, 14, 40, 41, 93, 92, 66, 41, 42, 43, 95, 94, 93, 41, 43, 44, 96, 95, 93, 44, 45, 46, 98, 97, 96, 41, 44, 46, 98, 96, 93, 41, 46, 47, 99, 98, 93, 14, 41, 47, 99, 93, 66, 14, 47, 48, 100, 99, 66, 0, 14, 48, 100, 66, 52, 0, 48, 49, 101, 100, 52, 51, 0, 49, 101, 52, 103, 49, 50, 51, 103, 102, 101, 0, 52, 53, 1, 1, 53, 54, 2, 2, 54, 55, 3, 3, 55, 56, 4, 4, 56, 57, 5, 5, 57, 58, 6, 6, 58, 59, 7, 7, 59, 60, 8, 8, 60, 61, 9, 9, 61, 62, 10, 10, 62, 63, 11, 11, 63, 64, 12, 12, 64, 65, 13, 13, 65, 66, 14, 14, 66, 67, 15, 15, 67, 68, 16, 16, 68, 69, 17, 17, 69, 70, 18, 18, 70, 71, 19, 19, 71, 72, 20, 20, 72, 73, 21, 21, 73, 74, 22, 22, 74, 75, 23, 23, 75, 76, 24, 24, 76, 77, 25, 25, 77, 78, 26, 26, 78, 79, 27, 27, 79, 80, 28, 28, 80, 81, 29, 29, 81, 82, 30, 30, 82, 83, 31, 31, 83, 84, 32, 32, 84, 85, 33, 33, 85, 86, 34, 34, 86, 87, 35, 35, 87, 88, 36, 36, 88, 89, 37, 37, 89, 90, 38, 38, 90, 91, 39, 39, 91, 92, 40, 40, 92, 93, 41, 41, 93, 94, 42, 42, 94, 95, 43, 43, 95, 96, 44, 44, 96, 97, 45, 45, 97, 98, 46, 46, 98, 99, 47, 47, 99, 100, 48, 48, 100, 101, 49, 49, 101, 102, 50, 50, 102, 103, 51, 51, 103, 52, 0]
            point3f[] points = [(-0.020000, -0.350000, -0.040000), (-0.004000, -0.350000, -0.040000), (-0.004000, -0.350000, -0.036500), (-0.007500, -0.350000, -0.036500), (-0.007500, -0.350000, -0.028500), (0.007500, -0.350000, -0.028500), (0.007500, -0.350000, -0.036500), (0.004000, -0.350000, -0.036500), (0.004000, -0.350000, -0.040000), (0.020000, -0.350000, -0.040000), (0.020000, -0.350000, -0.024000), (0.016500, -0.350000, -0.024000), (0.016500, -0.350000, -0.027500), (0.008500, -0.350000, -0.027500), (0.008500, -0.350000, -0.012500), (0.016500, -0.350000, -0.012500), (0.016500, -0.350000, -0.016000), (0.020000, -0.350000, -0.016000), (0.020000, -0.350000, 0.016000), (0.016500, -0.350000, 0.016000), (0.016500, -0.350000, 0.012500), (0.008500, -0.350000, 0.012500), (0.008500, -0.350000, 0.027500), (0.016500, -0.350000, 0.027500), (0.016500, -0.350000, 0.024000), (0.020000, -0.350000, 0.024000), (0.020000, -0.350000, 0.040000), (0.004000, -0.350000, 0.040000), (0.004000, -0.350000, 0.036500), (0.007500, -0.350000, 0.036500), (0.007500, -0.350000, 0.028500), (-0.007500, -0.350000, 0.028500), (-0.007500, -0.350000, 0.036500), (-0.004000, -0.350000, 0.036500), (-0.004000, -0.350000, 0.040000), (-0.020000, -0.350000, 0.040000), (-0.020000, -0.350000, 0.024000), (-0.016500, -0.350000, 0.024000), (-0.016500, -0.350000, 0.027500), (-0.008500, -0.350000, 0.027500), (-0.008500, -0.350000, 0.012500), (-0.016500, -0.350000, 0.012500), (-0.016500, -0.350000, 0.016000), (-0.020000, -0.350000, 0.016000), (-0.020000, -0.350000, -0.016000), (-0.016500, -0.350000, -0.016000), (-0.016500, -0.350000, -0.012500), (-0.008500, -0.350000, -0.012500), (-0.008500, -0.350000, -0.027500), (-0.016500, -0.350000, -0.027500), (-0.016500, -0.350000, -0.024000), (-0.020000, -0.350000, -0.024000), (-0.020000, 0.350000, -0.040000), (-0.004000, 0.350000, -0.040000), (-0.004000, 0.350000, -0.036500), (-0.007500, 0.350000, -0.036500), (-0.007500, 0.350000, -0.028500), (0.007500, 0.350000, -0.028500), (0.007500, 0.350000, -0.036500), (0.004000, 0.350000, -0.036500), (0.004000, 0.350000, -0.040000), (0.020000, 0.350000, -0.040000), (0.020000, 0.350000, -0.024000), (0.016500, 0.350000, -0.024000), (0.016500, 0.350000, -0.027500), (0.008500, 0.350000, -0.027500), (0.008500, 0.350000, -0.012500), (0.016500, 0.350000, -0.012500), (0.016500, 0.350000, -0.016000), (0.020000, 0.350000, -0.016000), (0.020000, 0.350000, 0.016000), (0.016500, 0.350000, 0.016000), (0.016500, 0.350000, 0.012500), (0.008500, 0.350000, 0.012500), (0.008500, 0.350000, 0.027500), (0.016500, 0.350000, 0.027500), (0.016500, 0.350000, 0.024000), (0.020000, 0.350000, 0.024000), (0.020000, 0.350000, 0.040000), (0.004000, 0.350000, 0.040000), (0.004000, 0.350000, 0.036500), (0.007500, 0.350000, 0.036500), (0.007500, 0.350000, 0.028500), (-0.007500, 0.350000, 0.028500), (-0.007500, 0.350000, 0.036500), (-0.004000, 0.350000, 0.036500), (-0.004000, 0.350000, 0.040000), (-0.020000, 0.350000, 0.040000), (-0.020000, 0.350000, 0.024000), (-0.016500, 0.350000, 0.024000), (-0.016500, 0.350000, 0.027500), (-0.008500, 0.350000, 0.027500), (-0.008500, 0.350000, 0.012500), (-0.016500, 0.350000, 0.012500), (-0.016500, 0.350000, 0.016000), (-0.020000, 0.350000, 0.016000), (-0.020000, 0.350000, -0.016000), (-0.016500, 0.350000, -0.016000), (-0.016500, 0.350000, -0.012500), (-0.008500, 0.350000, -0.012500), (-0.008500, 0.350000, -0.027500), (-0.016500, 0.350000, -0.027500), (-0.016500, 0.350000, -0.024000), (-0.020000, 0.350000, -0.024000)]
            uniform token subdivisionScheme = "none"
            uniform bool doubleSided = 0
            rel material:binding = </alu_profile_4080_700/Looks/Surface>
        }
        def Mesh "alu_profile_4080_700_collision" (
            prepend apiSchemas = ["MaterialBindingAPI", "PhysicsCollisionAPI", "PhysicsMeshCollisionAPI", "PhysxCollisionAPI"]
        )
        {
            float3[] extent = [(-0.020000, -0.350000, -0.040000), (0.020000, 0.350000, 0.040000)]
            int[] faceVertexCounts = [4, 4, 4, 4, 4, 4]
            int[] faceVertexIndices = [0, 3, 2, 1, 4, 5, 6, 7, 0, 1, 5, 4, 1, 2, 6, 5, 2, 3, 7, 6, 3, 0, 4, 7]
            point3f[] points = [(-0.020000, -0.350000, -0.040000), (0.020000, -0.350000, -0.040000), (0.020000, 0.350000, -0.040000), (-0.020000, 0.350000, -0.040000), (-0.020000, -0.350000, 0.040000), (0.020000, -0.350000, 0.040000), (0.020000, 0.350000, 0.040000), (-0.020000, 0.350000, 0.040000)]
            uniform token subdivisionScheme = "none"
            uniform bool doubleSided = 0
            token visibility = "invisible"
            uniform token physics:approximation = "convexHull"
            bool physics:collisionEnabled = 1
            float physxCollision:torsionalPatchRadius = 0.02
            float physxCollision:minTorsionalPatchRadius = 0.01
            rel material:binding:physics = </alu_profile_4080_700/Looks/PhysMat>
        }
    }

    def Scope "Looks"
    {
        def Material "Surface"
        {
            token outputs:surface.connect = </alu_profile_4080_700/Looks/Surface/Shader.outputs:surface>

            def Shader "Shader"
            {
                uniform token info:id = "UsdPreviewSurface"
                color3f inputs:diffuseColor = (0.78, 0.79, 0.81)
                float inputs:metallic = 0.65
                float inputs:roughness = 0.38
                float inputs:opacity = 1
                token outputs:surface
            }
        }

        def Material "PhysMat" (
            prepend apiSchemas = ["PhysicsMaterialAPI"]
        )
        {
            float physics:staticFriction = 1.2
            float physics:dynamicFriction = 1.0
            float physics:restitution = 0
        }
    }
}
